<svg width="256" height="256" viewBox="0 0 256 256" fill="none" xmlns="http://www.w3.org/2000/svg">
<g clip-path="url(#clip0_15727_13934)">
<path d="M128 256C198.692 256 256 198.692 256 128C256 57.3076 198.692 0 128 0C57.3076 0 0 57.3076 0 128C0 198.692 57.3076 256 128 256Z" fill="#BDC5D1"/>
<path d="M205.182 168.593L179.43 196.103C178.873 196.7 178.199 197.177 177.449 197.504C176.698 197.83 175.889 197.999 175.07 198H52.9921C52.4098 198 51.8403 197.83 51.3533 197.512C50.8662 197.194 50.4828 196.742 50.2498 196.21C50.017 195.679 49.9448 195.091 50.0421 194.519C50.1393 193.947 50.4019 193.416 50.7976 192.99L76.5211 165.48C77.0782 164.882 77.7528 164.405 78.5028 164.08C79.253 163.753 80.0625 163.584 80.8811 163.584H202.959C203.547 163.571 204.124 163.732 204.621 164.046C205.116 164.362 205.507 164.815 205.746 165.35C205.983 165.885 206.057 166.479 205.956 167.056C205.856 167.634 205.587 168.168 205.182 168.593ZM179.43 113.181C178.87 112.587 178.196 112.112 177.446 111.786C176.697 111.459 175.889 111.289 175.07 111.285H52.9921C52.4098 111.285 51.8403 111.454 51.3533 111.772C50.8662 112.09 50.4828 112.543 50.2498 113.074C50.017 113.606 49.9448 114.194 50.0421 114.766C50.1393 115.338 50.4019 115.869 50.7976 116.294L76.5211 143.819C77.0803 144.414 77.7553 144.889 78.5049 145.215C79.2546 145.541 80.0631 145.712 80.8811 145.717H202.959C203.54 145.712 204.108 145.541 204.592 145.222C205.077 144.903 205.458 144.45 205.69 143.919C205.921 143.388 205.991 142.802 205.894 142.231C205.796 141.661 205.534 141.131 205.139 140.706L179.43 113.181ZM52.9921 93.4175H175.07C175.889 93.4168 176.698 93.2479 177.449 92.9217C178.199 92.5953 178.873 92.1184 179.43 91.5207L205.182 64.0103C205.485 63.6925 205.712 63.312 205.849 62.8961C205.987 62.4804 206.03 62.0396 205.976 61.6052C205.923 61.1709 205.772 60.7537 205.538 60.3836C205.305 60.0134 204.991 59.6993 204.62 59.4639C204.124 59.1497 203.547 58.9884 202.959 59.0006H80.8811C80.0625 59.0015 79.253 59.1704 78.5028 59.4966C77.7528 59.823 77.0782 60.2997 76.5211 60.8973L50.7976 88.4076C50.4019 88.8333 50.1393 89.3645 50.0421 89.9364C49.9448 90.5083 50.017 91.096 50.2498 91.6277C50.4828 92.1594 50.8662 92.6118 51.3533 92.9297C51.8403 93.2476 52.4098 93.4171 52.9921 93.4175Z" fill="white"/>
</g>
<defs>
<clipPath id="clip0_15727_13934">
<rect width="256" height="256" fill="white"/>
</clipPath>
</defs>
</svg>
