<svg width="275" height="54" viewBox="0 0 275 54" fill="none" xmlns="http://www.w3.org/2000/svg">
<g clip-path="url(#clip0_11321_12465)">
<path d="M50.25 43.7797V9.38925H64.719C67.0769 9.38925 69.0979 9.78933 70.7822 10.5895C72.4664 11.3896 73.7526 12.5436 74.6405 14.0516C75.5286 15.5288 75.9726 17.329 75.9726 19.4524C75.9726 20.9605 75.5593 22.4069 74.7325 23.7916C73.9056 25.1458 72.5429 26.2844 70.6444 27.2076V23.6994C72.4511 24.4073 73.8443 25.2535 74.8244 26.2383C75.8043 27.223 76.4779 28.3002 76.8453 29.4696C77.2129 30.6082 77.3966 31.8084 77.3966 33.0702C77.3966 36.4554 76.2789 39.0866 74.0435 40.9639C71.808 42.841 68.6998 43.7797 64.719 43.7797H50.25ZM57.3697 37.5479H65.5458C66.9851 37.5479 68.1333 37.1325 68.9908 36.3015C69.8482 35.4705 70.277 34.3936 70.277 33.0702C70.277 31.7161 69.8482 30.6236 68.9908 29.7928C68.1333 28.9618 66.9851 28.5463 65.5458 28.5463H57.3697V37.5479ZM57.3697 22.3144H65.2242C66.3266 22.3144 67.1994 22.0068 67.8424 21.3914C68.5161 20.7449 68.8529 19.8987 68.8529 18.8524C68.8529 17.8061 68.5161 16.9751 67.8424 16.3597C67.1994 15.7134 66.3266 15.3903 65.2242 15.3903H57.3697V22.3144Z" fill="#141414"/>
<path d="M89.2224 44.3336C87.4157 44.3336 85.854 44.0413 84.5373 43.4566C83.2204 42.8718 82.2099 42.0409 81.5056 40.9639C80.8013 39.856 80.4492 38.548 80.4492 37.04C80.4492 35.6244 80.7708 34.3781 81.4137 33.301C82.0568 32.1931 83.0367 31.2698 84.3536 30.5313C85.7009 29.7928 87.3698 29.2696 89.3602 28.9618L97.0312 27.7154V32.7933L90.6005 33.9473C89.6205 34.132 88.8703 34.455 88.3497 34.9167C87.8292 35.3474 87.5689 35.9783 87.5689 36.8092C87.5689 37.5786 87.8598 38.1788 88.4416 38.6095C89.0234 39.0404 89.7431 39.2559 90.6005 39.2559C91.7335 39.2559 92.7286 39.0096 93.5861 38.5172C94.4436 38.0249 95.1019 37.3632 95.5613 36.5323C96.0512 35.6707 96.2962 34.732 96.2962 33.7165V27.1616C96.2962 26.2075 95.9135 25.4074 95.1478 24.7611C94.4129 24.1149 93.4024 23.7916 92.1163 23.7916C90.8914 23.7916 89.8043 24.1303 88.8549 24.8073C87.9363 25.4842 87.2626 26.3768 86.8339 27.4846L81.3219 24.8534C81.8118 23.4378 82.5927 22.2222 83.6646 21.2066C84.7362 20.1911 86.0224 19.4064 87.5228 18.8524C89.0234 18.2984 90.6617 18.0214 92.4377 18.0214C94.5508 18.0214 96.4188 18.4061 98.0416 19.1755C99.6646 19.945 100.92 21.0219 101.808 22.4069C102.727 23.7608 103.186 25.3457 103.186 27.1616V43.7797H96.7556V39.7175L98.3173 39.4405C97.5824 40.5484 96.7708 41.4717 95.8828 42.2102C94.9947 42.9181 93.9996 43.4412 92.8971 43.7797C91.7948 44.1489 90.5699 44.3336 89.2224 44.3336Z" fill="#141414"/>
<path d="M120.549 44.3336C118.038 44.3336 115.772 43.7643 113.751 42.6257C111.761 41.4563 110.168 39.8714 108.974 37.871C107.81 35.8706 107.229 33.6241 107.229 31.1313C107.229 28.6386 107.81 26.4075 108.974 24.4379C110.138 22.4377 111.73 20.8682 113.751 19.7294C115.772 18.5908 118.038 18.0214 120.549 18.0214C122.417 18.0214 124.147 18.3447 125.74 18.9909C127.332 19.6372 128.695 20.545 129.828 21.7144C130.961 22.853 131.772 24.2071 132.262 25.7766L126.291 28.3616C125.862 27.0999 125.127 26.0998 124.086 25.3611C123.075 24.6226 121.897 24.2533 120.549 24.2533C119.355 24.2533 118.283 24.5457 117.334 25.1304C116.415 25.7152 115.68 26.5305 115.129 27.5769C114.608 28.6232 114.348 29.8234 114.348 31.1775C114.348 32.5317 114.608 33.7319 115.129 34.7782C115.68 35.8246 116.415 36.6399 117.334 37.2247C118.283 37.8095 119.355 38.1017 120.549 38.1017C121.927 38.1017 123.122 37.7325 124.132 36.994C125.143 36.2553 125.862 35.2552 126.291 33.9935L132.262 36.6247C131.803 38.1017 131.007 39.4251 129.874 40.5945C128.741 41.7639 127.378 42.6871 125.786 43.3642C124.193 44.0104 122.448 44.3336 120.549 44.3336Z" fill="#141414"/>
<path d="M136.318 43.7797V8.8353H143.208V31.2238L140.636 30.3928L151.706 18.5754H160.204L151.109 28.731L160.158 43.7797H152.349L144.77 30.9928L148.766 29.9773L141.096 38.3787L143.208 34.3627V43.7797H136.318Z" fill="#141414"/>
<path d="M163.234 53.0121V18.5754H169.664V23.3762L169.068 21.9914C169.895 20.7297 171.013 19.7602 172.421 19.0832C173.86 18.3753 175.499 18.0214 177.336 18.0214C179.725 18.0214 181.884 18.6062 183.812 19.7756C185.742 20.9451 187.273 22.53 188.406 24.5303C189.539 26.4999 190.105 28.7156 190.105 31.1775C190.105 33.6088 189.539 35.8245 188.406 37.8248C187.304 39.8251 185.788 41.41 183.858 42.5794C181.93 43.7489 179.74 44.3336 177.29 44.3336C175.575 44.3336 173.983 44.0258 172.514 43.4104C171.074 42.7642 169.909 41.8255 169.021 40.5945L170.125 39.1635V53.0121H163.234ZM176.463 38.1017C177.749 38.1017 178.882 37.8095 179.862 37.2247C180.841 36.6399 181.609 35.8245 182.159 34.7782C182.71 33.7319 182.985 32.5317 182.985 31.1775C182.985 29.8234 182.71 28.6386 182.159 27.6231C181.609 26.5768 180.841 25.7612 179.862 25.1766C178.882 24.561 177.749 24.2533 176.463 24.2533C175.239 24.2533 174.135 24.5457 173.156 25.1304C172.207 25.7152 171.457 26.5305 170.905 27.5769C170.385 28.6232 170.125 29.8234 170.125 31.1775C170.125 32.5317 170.385 33.7319 170.905 34.7782C171.457 35.8245 172.207 36.6399 173.156 37.2247C174.135 37.8095 175.239 38.1017 176.463 38.1017Z" fill="#141414"/>
<path d="M201.902 44.3336C200.095 44.3336 198.533 44.0413 197.217 43.4566C195.9 42.8718 194.89 42.0409 194.186 40.9639C193.48 39.856 193.129 38.548 193.129 37.04C193.129 35.6244 193.45 34.3781 194.093 33.301C194.736 32.1931 195.717 31.2698 197.034 30.5313C198.38 29.7928 200.049 29.2696 202.04 28.9618L209.71 27.7154V32.7933L203.281 33.9473C202.3 34.132 201.55 34.455 201.029 34.9167C200.509 35.3474 200.249 35.9783 200.249 36.8092C200.249 37.5786 200.539 38.1788 201.12 38.6095C201.704 39.0404 202.423 39.2559 203.281 39.2559C204.414 39.2559 205.408 39.0096 206.266 38.5172C207.122 38.0249 207.782 37.3632 208.241 36.5323C208.731 35.6707 208.976 34.732 208.976 33.7165V27.1616C208.976 26.2075 208.594 25.4074 207.828 24.7611C207.093 24.1149 206.082 23.7916 204.797 23.7916C203.571 23.7916 202.484 24.1303 201.535 24.8073C200.615 25.4842 199.943 26.3768 199.514 27.4846L194.002 24.8534C194.491 23.4378 195.273 22.2222 196.344 21.2066C197.416 20.1911 198.702 19.4064 200.203 18.8524C201.704 18.2984 203.342 18.0214 205.118 18.0214C207.23 18.0214 209.099 18.4061 210.721 19.1755C212.344 19.945 213.6 21.0219 214.488 22.4069C215.407 23.7608 215.866 25.3457 215.866 27.1616V43.7797H209.435V39.7175L210.997 39.4405C210.262 40.5484 209.45 41.4717 208.562 42.2102C207.674 42.9181 206.678 43.4412 205.577 43.7797C204.475 44.1489 203.249 44.3336 201.902 44.3336Z" fill="#141414"/>
<path d="M233.229 44.3336C230.718 44.3336 228.451 43.7643 226.43 42.6257C224.441 41.4563 222.849 39.8714 221.654 37.871C220.49 35.8706 219.908 33.6241 219.908 31.1313C219.908 28.6386 220.49 26.4075 221.654 24.4379C222.817 22.4377 224.409 20.8682 226.43 19.7294C228.451 18.5908 230.718 18.0214 233.229 18.0214C235.096 18.0214 236.827 18.3447 238.419 18.9909C240.011 19.6372 241.375 20.545 242.508 21.7144C243.641 22.853 244.453 24.2071 244.941 25.7766L238.971 28.3616C238.542 27.0999 237.806 26.0998 236.766 25.3611C235.756 24.6226 234.576 24.2533 233.229 24.2533C232.035 24.2533 230.963 24.5457 230.014 25.1304C229.094 25.7152 228.36 26.5305 227.809 27.5769C227.288 28.6232 227.028 29.8234 227.028 31.1775C227.028 32.5317 227.288 33.7319 227.809 34.7782C228.36 35.8246 229.094 36.6399 230.014 37.2247C230.963 37.8095 232.035 38.1017 233.229 38.1017C234.607 38.1017 235.802 37.7325 236.812 36.994C237.823 36.2553 238.542 35.2552 238.971 33.9935L244.941 36.6247C244.483 38.1017 243.686 39.4251 242.553 40.5945C241.421 41.7639 240.058 42.6871 238.466 43.3642C236.874 44.0104 235.128 44.3336 233.229 44.3336Z" fill="#141414"/>
<path d="M249 43.7797V8.8353H255.89V31.2238L253.319 30.3928L264.388 18.5754H272.885L263.792 28.731L272.841 43.7797H265.031L257.452 30.9928L261.448 29.9773L253.778 38.3787L255.89 34.3627V43.7797H249Z" fill="#141414"/>
<mask id="mask0_11321_12465" style="mask-type:luminance" maskUnits="userSpaceOnUse" x="0" y="0" width="32" height="47">
<path d="M31.8901 0H0V46.3855H31.8901V0Z" fill="white"/>
</mask>
<g mask="url(#mask0_11321_12465)">
<path fill-rule="evenodd" clip-rule="evenodd" d="M18.9659 3.64721C20.6518 3.64721 22.2333 3.87323 23.6975 4.29239C22.2641 0.951394 19.2876 0 15.9751 0C12.6561 0 9.67457 0.955133 8.2443 4.31207C9.69776 3.87816 11.2724 3.64721 12.9526 3.64721H18.9659ZM12.5669 7.00143C4.56131 7.00143 0 13.2994 0 21.0683V29.0489C0 29.8259 0.648985 30.4405 1.44955 30.4405H30.4405C31.241 30.4405 31.8901 29.8259 31.8901 29.0489V21.0683C31.8901 13.2994 26.5859 7.00143 18.5802 7.00143H12.5669ZM15.9337 21.1374C18.7356 21.1374 21.0072 18.8658 21.0072 16.0639C21.0072 13.262 18.7356 10.9905 15.9337 10.9905C13.1317 10.9905 10.8603 13.262 10.8603 16.0639C10.8603 18.8658 13.1317 21.1374 15.9337 21.1374ZM0 35.1314C0 34.3545 0.648985 33.7246 1.44955 33.7246H30.4405C31.241 33.7246 31.8901 34.3545 31.8901 35.1314V43.5714C31.8901 45.1252 30.5921 46.3849 28.991 46.3849H2.8991C1.29797 46.3849 0 45.1252 0 43.5714V35.1314Z" fill="#E33E3F"/>
</g>
</g>
<defs>
<clipPath id="clip0_11321_12465">
<rect width="275" height="53.012" fill="white"/>
</clipPath>
</defs>
</svg>
