<svg width="400" height="150" viewBox="0 0 400 150" fill="none" xmlns="http://www.w3.org/2000/svg">
<g clip-path="url(#clip0_11321_12464)">
<path d="M113.25 91.7797V57.3893H127.719C130.077 57.3893 132.098 57.7893 133.782 58.5895C135.466 59.3896 136.753 60.5436 137.641 62.0516C138.529 63.5288 138.973 65.329 138.973 67.4524C138.973 68.9605 138.559 70.4069 137.732 71.7916C136.906 73.1458 135.543 74.2844 133.644 75.2076V71.6994C135.451 72.4073 136.844 73.2535 137.824 74.2383C138.804 75.223 139.478 76.3002 139.845 77.4696C140.213 78.6082 140.397 79.8084 140.397 81.0702C140.397 84.4554 139.279 87.0866 137.043 88.9639C134.808 90.841 131.7 91.7797 127.719 91.7797H113.25ZM120.37 85.5479H128.546C129.985 85.5479 131.133 85.1325 131.991 84.3015C132.848 83.4705 133.277 82.3936 133.277 81.0702C133.277 79.7161 132.848 78.6236 131.991 77.7928C131.133 76.9618 129.985 76.5463 128.546 76.5463H120.37V85.5479ZM120.37 70.3144H128.224C129.327 70.3144 130.199 70.0068 130.842 69.3914C131.516 68.7449 131.853 67.8987 131.853 66.8524C131.853 65.8061 131.516 64.9751 130.842 64.3597C130.199 63.7134 129.327 63.3903 128.224 63.3903H120.37V70.3144Z" fill="#141414"/>
<path d="M152.222 92.3336C150.416 92.3336 148.854 92.0413 147.537 91.4566C146.22 90.8718 145.21 90.0409 144.506 88.9639C143.801 87.856 143.449 86.548 143.449 85.04C143.449 83.6244 143.771 82.3781 144.414 81.301C145.057 80.1931 146.037 79.2698 147.354 78.5313C148.701 77.7928 150.37 77.2696 152.36 76.9618L160.031 75.7154V80.7933L153.601 81.9473C152.62 82.132 151.87 82.455 151.35 82.9167C150.829 83.3474 150.569 83.9783 150.569 84.8092C150.569 85.5786 150.86 86.1788 151.442 86.6095C152.023 87.0404 152.743 87.2559 153.601 87.2559C154.733 87.2559 155.729 87.0096 156.586 86.5172C157.444 86.0249 158.102 85.3632 158.561 84.5323C159.051 83.6707 159.296 82.732 159.296 81.7165V75.1616C159.296 74.2075 158.913 73.4074 158.148 72.7611C157.413 72.1149 156.402 71.7916 155.116 71.7916C153.891 71.7916 152.804 72.1303 151.855 72.8073C150.936 73.4842 150.263 74.3768 149.834 75.4846L144.322 72.8534C144.812 71.4378 145.593 70.2222 146.665 69.2066C147.736 68.1911 149.022 67.4064 150.523 66.8524C152.023 66.2984 153.662 66.0214 155.438 66.0214C157.551 66.0214 159.419 66.4061 161.042 67.1755C162.665 67.945 163.92 69.0219 164.808 70.4069C165.727 71.7608 166.186 73.3457 166.186 75.1616V91.7797H159.756V87.7175L161.317 87.4405C160.582 88.5484 159.771 89.4717 158.883 90.2102C157.995 90.9181 157 91.4412 155.897 91.7797C154.795 92.1489 153.57 92.3336 152.222 92.3336Z" fill="#141414"/>
<path d="M183.549 92.3336C181.038 92.3336 178.772 91.7643 176.751 90.6257C174.761 89.4563 173.168 87.8714 171.974 85.871C170.81 83.8706 170.229 81.6241 170.229 79.1313C170.229 76.6386 170.81 74.4075 171.974 72.4379C173.138 70.4377 174.73 68.8682 176.751 67.7294C178.772 66.5908 181.038 66.0214 183.549 66.0214C185.417 66.0214 187.147 66.3447 188.74 66.9909C190.332 67.6372 191.695 68.545 192.828 69.7144C193.961 70.853 194.772 72.2071 195.262 73.7766L189.291 76.3616C188.862 75.0999 188.127 74.0998 187.086 73.3611C186.075 72.6226 184.897 72.2533 183.549 72.2533C182.355 72.2533 181.283 72.5457 180.334 73.1304C179.415 73.7152 178.68 74.5305 178.129 75.5769C177.608 76.6232 177.348 77.8234 177.348 79.1775C177.348 80.5317 177.608 81.7319 178.129 82.7782C178.68 83.8246 179.415 84.6399 180.334 85.2247C181.283 85.8095 182.355 86.1017 183.549 86.1017C184.927 86.1017 186.122 85.7325 187.132 84.994C188.143 84.2553 188.862 83.2552 189.291 81.9935L195.262 84.6247C194.803 86.1017 194.007 87.4251 192.874 88.5945C191.741 89.7639 190.378 90.6871 188.786 91.3642C187.193 92.0104 185.448 92.3336 183.549 92.3336Z" fill="#141414"/>
<path d="M199.318 91.7797V56.8353H206.208V79.2238L203.636 78.3928L214.706 66.5754H223.204L214.109 76.731L223.158 91.7797H215.349L207.77 78.9928L211.766 77.9773L204.096 86.3787L206.208 82.3627V91.7797H199.318Z" fill="#141414"/>
<path d="M226.234 101.012V66.5754H232.664V71.3762L232.068 69.9914C232.895 68.7297 234.013 67.7602 235.421 67.0832C236.86 66.3753 238.499 66.0214 240.336 66.0214C242.725 66.0214 244.884 66.6062 246.812 67.7756C248.742 68.9451 250.273 70.53 251.406 72.5303C252.539 74.4999 253.105 76.7156 253.105 79.1775C253.105 81.6088 252.539 83.8245 251.406 85.8248C250.304 87.8251 248.788 89.41 246.858 90.5794C244.93 91.7489 242.74 92.3336 240.29 92.3336C238.575 92.3336 236.983 92.0258 235.514 91.4104C234.074 90.7642 232.909 89.8255 232.021 88.5945L233.125 87.1635V101.012H226.234ZM239.463 86.1017C240.749 86.1017 241.882 85.8095 242.862 85.2247C243.841 84.6399 244.609 83.8245 245.159 82.7782C245.71 81.7319 245.985 80.5317 245.985 79.1775C245.985 77.8234 245.71 76.6386 245.159 75.6231C244.609 74.5768 243.841 73.7612 242.862 73.1766C241.882 72.561 240.749 72.2533 239.463 72.2533C238.239 72.2533 237.135 72.5457 236.156 73.1304C235.207 73.7152 234.457 74.5305 233.905 75.5769C233.385 76.6232 233.125 77.8234 233.125 79.1775C233.125 80.5317 233.385 81.7319 233.905 82.7782C234.457 83.8245 235.207 84.6399 236.156 85.2247C237.135 85.8095 238.239 86.1017 239.463 86.1017Z" fill="#141414"/>
<path d="M264.902 92.3336C263.095 92.3336 261.533 92.0413 260.217 91.4566C258.9 90.8718 257.89 90.0409 257.186 88.9639C256.48 87.856 256.129 86.548 256.129 85.04C256.129 83.6244 256.45 82.3781 257.093 81.301C257.736 80.1931 258.717 79.2698 260.034 78.5313C261.38 77.7928 263.049 77.2696 265.04 76.9618L272.71 75.7154V80.7933L266.281 81.9473C265.3 82.132 264.55 82.455 264.029 82.9167C263.509 83.3474 263.249 83.9783 263.249 84.8092C263.249 85.5786 263.539 86.1788 264.12 86.6095C264.704 87.0404 265.423 87.2559 266.281 87.2559C267.414 87.2559 268.408 87.0096 269.266 86.5172C270.122 86.0249 270.782 85.3632 271.241 84.5323C271.731 83.6707 271.976 82.732 271.976 81.7165V75.1616C271.976 74.2075 271.594 73.4074 270.828 72.7611C270.093 72.1149 269.082 71.7916 267.797 71.7916C266.571 71.7916 265.484 72.1303 264.535 72.8073C263.615 73.4842 262.943 74.3768 262.514 75.4846L257.002 72.8534C257.491 71.4378 258.273 70.2222 259.344 69.2066C260.416 68.1911 261.702 67.4064 263.203 66.8524C264.704 66.2984 266.342 66.0214 268.118 66.0214C270.23 66.0214 272.099 66.4061 273.721 67.1755C275.344 67.945 276.6 69.0219 277.488 70.4069C278.407 71.7608 278.866 73.3457 278.866 75.1616V91.7797H272.435V87.7175L273.997 87.4405C273.262 88.5484 272.45 89.4717 271.562 90.2102C270.674 90.9181 269.678 91.4412 268.577 91.7797C267.475 92.1489 266.249 92.3336 264.902 92.3336Z" fill="#141414"/>
<path d="M296.229 92.3336C293.718 92.3336 291.451 91.7643 289.43 90.6257C287.441 89.4563 285.849 87.8714 284.654 85.871C283.49 83.8706 282.908 81.6241 282.908 79.1313C282.908 76.6386 283.49 74.4075 284.654 72.4379C285.817 70.4377 287.409 68.8682 289.43 67.7294C291.451 66.5908 293.718 66.0214 296.229 66.0214C298.096 66.0214 299.827 66.3447 301.419 66.9909C303.011 67.6372 304.375 68.545 305.508 69.7144C306.641 70.853 307.453 72.2071 307.941 73.7766L301.971 76.3616C301.542 75.0999 300.806 74.0998 299.766 73.3611C298.756 72.6226 297.576 72.2533 296.229 72.2533C295.035 72.2533 293.963 72.5457 293.014 73.1304C292.094 73.7152 291.36 74.5305 290.809 75.5769C290.288 76.6232 290.028 77.8234 290.028 79.1775C290.028 80.5317 290.288 81.7319 290.809 82.7782C291.36 83.8246 292.094 84.6399 293.014 85.2247C293.963 85.8095 295.035 86.1017 296.229 86.1017C297.607 86.1017 298.802 85.7325 299.812 84.994C300.823 84.2553 301.542 83.2552 301.971 81.9935L307.941 84.6247C307.483 86.1017 306.686 87.4251 305.553 88.5945C304.421 89.7639 303.058 90.6871 301.466 91.3642C299.874 92.0104 298.128 92.3336 296.229 92.3336Z" fill="#141414"/>
<path d="M312 91.7797V56.8353H318.89V79.2238L316.319 78.3928L327.388 66.5754H335.885L326.792 76.731L335.841 91.7797H328.031L320.452 78.9928L324.448 77.9773L316.778 86.3787L318.89 82.3627V91.7797H312Z" fill="#141414"/>
<mask id="mask0_11321_12464" style="mask-type:luminance" maskUnits="userSpaceOnUse" x="63" y="48" width="32" height="47">
<path d="M94.8901 48H63V94.3855H94.8901V48Z" fill="white"/>
</mask>
<g mask="url(#mask0_11321_12464)">
<path fill-rule="evenodd" clip-rule="evenodd" d="M81.9659 51.6472C83.6518 51.6472 85.2333 51.8732 86.6975 52.2924C85.2641 48.9514 82.2876 48 78.9751 48C75.6561 48 72.6746 48.9551 71.2443 52.3121C72.6978 51.8782 74.2724 51.6472 75.9526 51.6472H81.9659ZM75.5669 55.0014C67.5613 55.0014 63 61.2994 63 69.0683V77.0489C63 77.8259 63.649 78.4405 64.4495 78.4405H93.4405C94.241 78.4405 94.8901 77.8259 94.8901 77.0489V69.0683C94.8901 61.2994 89.5859 55.0014 81.5802 55.0014H75.5669ZM78.9337 69.1374C81.7356 69.1374 84.0072 66.8658 84.0072 64.0639C84.0072 61.262 81.7356 58.9905 78.9337 58.9905C76.1317 58.9905 73.8603 61.262 73.8603 64.0639C73.8603 66.8658 76.1317 69.1374 78.9337 69.1374ZM63 83.1314C63 82.3545 63.649 81.7246 64.4495 81.7246H93.4405C94.241 81.7246 94.8901 82.3545 94.8901 83.1314V91.5714C94.8901 93.1252 93.5921 94.3849 91.991 94.3849H65.8991C64.298 94.3849 63 93.1252 63 91.5714V83.1314Z" fill="#E33E3F"/>
</g>
</g>
<defs>
<clipPath id="clip0_11321_12464">
<rect width="275" height="53.012" fill="white" transform="translate(63 48)"/>
</clipPath>
</defs>
</svg>
