<svg width="180" height="60" viewBox="0 0 180 60" fill="none" xmlns="http://www.w3.org/2000/svg">
<path d="M72.8184 11.2109H87.4859C90.6146 11.2109 93.4415 11.9576 95.9659 13.451C98.5259 14.9088 100.535 17.0244 101.993 19.7979C103.486 22.5713 104.233 25.8247 104.233 29.5582C104.233 33.5406 103.504 36.9718 102.046 39.8519C100.588 42.6964 98.579 44.8653 96.019 46.3588C93.4946 47.8166 90.6502 48.5454 87.4859 48.5454H72.8184V11.2109ZM86.739 42.1986C89.619 42.1986 92.0015 41.1319 93.8859 38.9985C95.7702 36.8651 96.7127 33.7183 96.7127 29.5582C96.7127 26.9981 96.2684 24.8114 95.379 22.998C94.4902 21.1846 93.2815 19.8334 91.7521 18.9445C90.259 18.0201 88.5877 17.5578 86.739 17.5578H80.2321V42.1986H86.739Z" fill="#141414"/>
<path d="M120.741 27.4248C119.247 27.4248 118.056 28.047 117.167 29.2915C116.278 30.536 115.834 31.9938 115.834 33.665V48.5454H108.953V21.6646H115.834V25.1847C116.367 24.0469 117.096 23.1758 118.02 22.5713C118.945 21.9668 120.029 21.6646 121.274 21.6646H124.581V27.4248H120.741Z" fill="#141414"/>
<path d="M128.33 21.6646H135.211V48.5454H128.33V21.6646ZM135.531 10.7309V17.7711H128.117V10.7309H135.531Z" fill="#141414"/>
<path d="M143.755 27.4248H138.742V21.6646H143.755V17.9845C143.755 15.4244 144.395 13.4688 145.675 12.1176C146.956 10.7665 148.787 10.0909 151.169 10.0909H157.729V15.8511H153.463C152.503 15.8511 151.792 16.1 151.329 16.5978C150.867 17.06 150.636 17.8423 150.636 18.9445V21.6646H158.263V27.4248H150.636V48.5454H143.755V27.4248Z" fill="#141414"/>
<path d="M171.524 12.2776V21.6646H178.778V27.4248H171.524V39.8519C171.524 41.8074 172.413 42.7852 174.191 42.7852H178.618V48.5454H172.164C169.746 48.5454 167.88 47.9054 166.564 46.6254C165.284 45.3098 164.644 43.3008 164.644 40.5986V27.4248H159.631V21.6646H164.644V15.1577L171.524 12.2776Z" fill="#141414"/>
<path d="M41.7904 47.7402C41.7904 49.6977 41.0611 51.4139 39.8902 52.7302C39.8764 52.7457 39.8668 52.7646 39.8626 52.7849C39.8449 52.8691 39.9203 52.9432 40.0038 52.9226C43.3801 52.0907 46.11 49.2067 46.11 45.4194V25.7859C46.11 19.9821 42.8682 14.6192 37.6059 11.7173L16.3576 0L12.1484 2.38161L33.2864 14.038C38.5487 16.9399 41.7904 22.3029 41.7904 28.1067V47.7402Z" fill="url(#paint0_linear_11321_12428)"/>
<path d="M41.7904 47.7402C41.7904 49.6977 41.0611 51.4139 39.8902 52.7302C39.8764 52.7457 39.8668 52.7646 39.8626 52.7849C39.8449 52.8691 39.9203 52.9432 40.0038 52.9226C43.3801 52.0907 46.11 49.2067 46.11 45.4194V25.7859C46.11 19.9821 42.8682 14.6192 37.6059 11.7173L16.3576 0L12.1484 2.38161L33.2864 14.038C38.5487 16.9399 41.7904 22.3029 41.7904 28.1067V47.7402Z" fill="url(#paint1_linear_11321_12428)"/>
<path d="M41.7904 47.7402C41.7904 49.6977 41.0611 51.4139 39.8902 52.7302C39.8764 52.7457 39.8668 52.7646 39.8626 52.7849C39.8449 52.8691 39.9203 52.9432 40.0038 52.9226C43.3801 52.0907 46.11 49.2067 46.11 45.4194V25.7859C46.11 19.9821 42.8682 14.6192 37.6059 11.7173L16.3576 0L12.1484 2.38161L33.2864 14.038C38.5487 16.9399 41.7904 22.3029 41.7904 28.1067V47.7402Z" fill="url(#paint2_radial_11321_12428)" fill-opacity="0.2"/>
<path d="M41.7904 47.7402C41.7904 49.6977 41.0611 51.4139 39.8902 52.7302C39.8764 52.7457 39.8668 52.7646 39.8626 52.7849C39.8449 52.8691 39.9203 52.9432 40.0038 52.9226C43.3801 52.0907 46.11 49.2067 46.11 45.4194V25.7859C46.11 19.9821 42.8682 14.6192 37.6059 11.7173L16.3576 0L12.1484 2.38161L33.2864 14.038C38.5487 16.9399 41.7904 22.3029 41.7904 28.1067V47.7402Z" fill="url(#paint3_radial_11321_12428)" fill-opacity="0.1"/>
<path d="M41.7904 47.7402C41.7904 49.6977 41.0611 51.4139 39.8902 52.7302C39.8764 52.7457 39.8668 52.7646 39.8626 52.7849C39.8449 52.8691 39.9203 52.9432 40.0038 52.9226C43.3801 52.0907 46.11 49.2067 46.11 45.4194V25.7859C46.11 19.9821 42.8682 14.6192 37.6059 11.7173L16.3576 0L12.1484 2.38161L33.2864 14.038C38.5487 16.9399 41.7904 22.3029 41.7904 28.1067V47.7402Z" fill="url(#paint4_linear_11321_12428)" fill-opacity="0.2"/>
<path d="M35.851 51.0923V31.4588C35.851 25.6551 32.6092 20.2921 27.3469 17.3902L6.20898 5.73376L10.4181 3.35216L31.6664 15.0694C36.9288 17.9714 40.1705 23.3343 40.1705 29.1381V48.7716C40.1705 52.5588 37.4406 55.4429 34.0643 56.2748C33.9808 56.2954 33.9055 56.2212 33.9231 56.1371C33.9274 56.1167 33.937 56.0979 33.9508 56.0823C35.1217 54.7661 35.851 53.0499 35.851 51.0923Z" fill="url(#paint5_linear_11321_12428)"/>
<path d="M35.851 51.0923V31.4588C35.851 25.6551 32.6092 20.2921 27.3469 17.3902L6.20898 5.73376L10.4181 3.35216L31.6664 15.0694C36.9288 17.9714 40.1705 23.3343 40.1705 29.1381V48.7716C40.1705 52.5588 37.4406 55.4429 34.0643 56.2748C33.9808 56.2954 33.9055 56.2212 33.9231 56.1371C33.9274 56.1167 33.937 56.0979 33.9508 56.0823C35.1217 54.7661 35.851 53.0499 35.851 51.0923Z" fill="url(#paint6_linear_11321_12428)"/>
<path d="M35.851 51.0923V31.4588C35.851 25.6551 32.6092 20.2921 27.3469 17.3902L6.20898 5.73376L10.4181 3.35216L31.6664 15.0694C36.9288 17.9714 40.1705 23.3343 40.1705 29.1381V48.7716C40.1705 52.5588 37.4406 55.4429 34.0643 56.2748C33.9808 56.2954 33.9055 56.2212 33.9231 56.1371C33.9274 56.1167 33.937 56.0979 33.9508 56.0823C35.1217 54.7661 35.851 53.0499 35.851 51.0923Z" fill="url(#paint7_radial_11321_12428)" fill-opacity="0.2"/>
<path d="M35.851 51.0923V31.4588C35.851 25.6551 32.6092 20.2921 27.3469 17.3902L6.20898 5.73376L10.4181 3.35216L31.6664 15.0694C36.9288 17.9714 40.1705 23.3343 40.1705 29.1381V48.7716C40.1705 52.5588 37.4406 55.4429 34.0643 56.2748C33.9808 56.2954 33.9055 56.2212 33.9231 56.1371C33.9274 56.1167 33.937 56.0979 33.9508 56.0823C35.1217 54.7661 35.851 53.0499 35.851 51.0923Z" fill="url(#paint8_radial_11321_12428)" fill-opacity="0.1"/>
<path d="M35.851 51.0923V31.4588C35.851 25.6551 32.6092 20.2921 27.3469 17.3902L6.20898 5.73376L10.4181 3.35216L31.6664 15.0694C36.9288 17.9714 40.1705 23.3343 40.1705 29.1381V48.7716C40.1705 52.5588 37.4406 55.4429 34.0643 56.2748C33.9808 56.2954 33.9055 56.2212 33.9231 56.1371C33.9274 56.1167 33.937 56.0979 33.9508 56.0823C35.1217 54.7661 35.851 53.0499 35.851 51.0923Z" fill="url(#paint9_linear_11321_12428)" fill-opacity="0.2"/>
<path fill-rule="evenodd" clip-rule="evenodd" d="M0 9.24588L4.26398 6.83325L25.5122 18.5506C30.7746 21.4524 34.0164 26.8154 34.0164 32.6192V52.3495L34.0158 52.3492C33.9434 58.2478 27.2379 61.9134 21.8677 58.9521L2.60974 48.3324L0 46.9303V9.24588ZM29.6968 35.0012V46.3991L15.3884 38.5088V17.7318L21.1928 20.9326C26.4551 23.8344 29.6968 29.1974 29.6968 35.0012ZM9.98894 14.7543L12.1487 15.9453V40.2941L12.3754 40.4157L29.6968 49.9675V52.1726L10.0168 41.3201L9.98894 41.3358V14.7543ZM6.47931 12.8189V43.2088L6.58081 43.2642L6.47931 43.3216L29.6703 56.1102C29.4764 57.1302 28.2581 57.7121 27.2671 57.1656L4.31954 44.5112V11.6279L6.47931 12.8189Z" fill="url(#paint10_linear_11321_12428)"/>
<path fill-rule="evenodd" clip-rule="evenodd" d="M0 9.24588L4.26398 6.83325L25.5122 18.5506C30.7746 21.4524 34.0164 26.8154 34.0164 32.6192V52.3495L34.0158 52.3492C33.9434 58.2478 27.2379 61.9134 21.8677 58.9521L2.60974 48.3324L0 46.9303V9.24588ZM29.6968 35.0012V46.3991L15.3884 38.5088V17.7318L21.1928 20.9326C26.4551 23.8344 29.6968 29.1974 29.6968 35.0012ZM9.98894 14.7543L12.1487 15.9453V40.2941L12.3754 40.4157L29.6968 49.9675V52.1726L10.0168 41.3201L9.98894 41.3358V14.7543ZM6.47931 12.8189V43.2088L6.58081 43.2642L6.47931 43.3216L29.6703 56.1102C29.4764 57.1302 28.2581 57.7121 27.2671 57.1656L4.31954 44.5112V11.6279L6.47931 12.8189Z" fill="url(#paint11_linear_11321_12428)"/>
<path fill-rule="evenodd" clip-rule="evenodd" d="M0 9.24588L4.26398 6.83325L25.5122 18.5506C30.7746 21.4524 34.0164 26.8154 34.0164 32.6192V52.3495L34.0158 52.3492C33.9434 58.2478 27.2379 61.9134 21.8677 58.9521L2.60974 48.3324L0 46.9303V9.24588ZM29.6968 35.0012V46.3991L15.3884 38.5088V17.7318L21.1928 20.9326C26.4551 23.8344 29.6968 29.1974 29.6968 35.0012ZM9.98894 14.7543L12.1487 15.9453V40.2941L12.3754 40.4157L29.6968 49.9675V52.1726L10.0168 41.3201L9.98894 41.3358V14.7543ZM6.47931 12.8189V43.2088L6.58081 43.2642L6.47931 43.3216L29.6703 56.1102C29.4764 57.1302 28.2581 57.7121 27.2671 57.1656L4.31954 44.5112V11.6279L6.47931 12.8189Z" fill="url(#paint12_radial_11321_12428)" fill-opacity="0.2"/>
<path fill-rule="evenodd" clip-rule="evenodd" d="M0 9.24588L4.26398 6.83325L25.5122 18.5506C30.7746 21.4524 34.0164 26.8154 34.0164 32.6192V52.3495L34.0158 52.3492C33.9434 58.2478 27.2379 61.9134 21.8677 58.9521L2.60974 48.3324L0 46.9303V9.24588ZM29.6968 35.0012V46.3991L15.3884 38.5088V17.7318L21.1928 20.9326C26.4551 23.8344 29.6968 29.1974 29.6968 35.0012ZM9.98894 14.7543L12.1487 15.9453V40.2941L12.3754 40.4157L29.6968 49.9675V52.1726L10.0168 41.3201L9.98894 41.3358V14.7543ZM6.47931 12.8189V43.2088L6.58081 43.2642L6.47931 43.3216L29.6703 56.1102C29.4764 57.1302 28.2581 57.7121 27.2671 57.1656L4.31954 44.5112V11.6279L6.47931 12.8189Z" fill="url(#paint13_radial_11321_12428)" fill-opacity="0.1"/>
<path fill-rule="evenodd" clip-rule="evenodd" d="M0 9.24588L4.26398 6.83325L25.5122 18.5506C30.7746 21.4524 34.0164 26.8154 34.0164 32.6192V52.3495L34.0158 52.3492C33.9434 58.2478 27.2379 61.9134 21.8677 58.9521L2.60974 48.3324L0 46.9303V9.24588ZM29.6968 35.0012V46.3991L15.3884 38.5088V17.7318L21.1928 20.9326C26.4551 23.8344 29.6968 29.1974 29.6968 35.0012ZM9.98894 14.7543L12.1487 15.9453V40.2941L12.3754 40.4157L29.6968 49.9675V52.1726L10.0168 41.3201L9.98894 41.3358V14.7543ZM6.47931 12.8189V43.2088L6.58081 43.2642L6.47931 43.3216L29.6703 56.1102C29.4764 57.1302 28.2581 57.7121 27.2671 57.1656L4.31954 44.5112V11.6279L6.47931 12.8189Z" fill="url(#paint14_linear_11321_12428)" fill-opacity="0.2"/>
<defs>
<linearGradient id="paint0_linear_11321_12428" x1="-0.768043" y1="30" x2="45.5956" y2="25.8552" gradientUnits="userSpaceOnUse">
<stop stop-color="#FF3873"/>
<stop offset="0.473958" stop-color="#711EFF"/>
<stop offset="1" stop-color="#3FE5FF"/>
</linearGradient>
<linearGradient id="paint1_linear_11321_12428" x1="2.85765" y1="2.76133" x2="35.2269" y2="30.2602" gradientUnits="userSpaceOnUse">
<stop stop-color="#F6F063"/>
<stop offset="1" stop-color="#E07774" stop-opacity="0"/>
</linearGradient>
<radialGradient id="paint2_radial_11321_12428" cx="0" cy="0" r="1" gradientUnits="userSpaceOnUse" gradientTransform="translate(1.21542 21.0916) rotate(65.584) scale(13.4407 11.5341)">
<stop offset="0.925861" stop-color="white"/>
<stop offset="1" stop-color="white" stop-opacity="0"/>
</radialGradient>
<radialGradient id="paint3_radial_11321_12428" cx="0" cy="0" r="1" gradientUnits="userSpaceOnUse" gradientTransform="translate(7.91231 15.5273) rotate(59.0024) scale(8.531 11.6514)">
<stop offset="0.0864251" stop-color="white"/>
<stop offset="0.94115" stop-color="white" stop-opacity="0"/>
</radialGradient>
<linearGradient id="paint4_linear_11321_12428" x1="5.27833" y1="16.6651" x2="29.3007" y2="25.1457" gradientUnits="userSpaceOnUse">
<stop stop-color="white"/>
<stop offset="1" stop-opacity="0"/>
</linearGradient>
<linearGradient id="paint5_linear_11321_12428" x1="-0.768147" y1="30" x2="45.5955" y2="25.8552" gradientUnits="userSpaceOnUse">
<stop stop-color="#FF3873"/>
<stop offset="0.473958" stop-color="#711EFF"/>
<stop offset="1" stop-color="#3FE5FF"/>
</linearGradient>
<linearGradient id="paint6_linear_11321_12428" x1="2.85754" y1="2.76133" x2="35.2268" y2="30.2602" gradientUnits="userSpaceOnUse">
<stop stop-color="#F6F063"/>
<stop offset="1" stop-color="#E07774" stop-opacity="0"/>
</linearGradient>
<radialGradient id="paint7_radial_11321_12428" cx="0" cy="0" r="1" gradientUnits="userSpaceOnUse" gradientTransform="translate(1.21532 21.0916) rotate(65.584) scale(13.4407 11.5341)">
<stop offset="0.925861" stop-color="white"/>
<stop offset="1" stop-color="white" stop-opacity="0"/>
</radialGradient>
<radialGradient id="paint8_radial_11321_12428" cx="0" cy="0" r="1" gradientUnits="userSpaceOnUse" gradientTransform="translate(7.91221 15.5273) rotate(59.0024) scale(8.531 11.6514)">
<stop offset="0.0864251" stop-color="white"/>
<stop offset="0.94115" stop-color="white" stop-opacity="0"/>
</radialGradient>
<linearGradient id="paint9_linear_11321_12428" x1="5.27822" y1="16.6651" x2="29.3006" y2="25.1457" gradientUnits="userSpaceOnUse">
<stop stop-color="white"/>
<stop offset="1" stop-opacity="0"/>
</linearGradient>
<linearGradient id="paint10_linear_11321_12428" x1="-0.767794" y1="30" x2="45.5959" y2="25.8552" gradientUnits="userSpaceOnUse">
<stop stop-color="#FF3873"/>
<stop offset="0.473958" stop-color="#711EFF"/>
<stop offset="1" stop-color="#3FE5FF"/>
</linearGradient>
<linearGradient id="paint11_linear_11321_12428" x1="2.85789" y1="2.76133" x2="35.2272" y2="30.2602" gradientUnits="userSpaceOnUse">
<stop stop-color="#F6F063"/>
<stop offset="1" stop-color="#E07774" stop-opacity="0"/>
</linearGradient>
<radialGradient id="paint12_radial_11321_12428" cx="0" cy="0" r="1" gradientUnits="userSpaceOnUse" gradientTransform="translate(1.21567 21.0916) rotate(65.584) scale(13.4407 11.5341)">
<stop offset="0.925861" stop-color="white"/>
<stop offset="1" stop-color="white" stop-opacity="0"/>
</radialGradient>
<radialGradient id="paint13_radial_11321_12428" cx="0" cy="0" r="1" gradientUnits="userSpaceOnUse" gradientTransform="translate(7.91256 15.5273) rotate(59.0024) scale(8.531 11.6514)">
<stop offset="0.0864251" stop-color="white"/>
<stop offset="0.94115" stop-color="white" stop-opacity="0"/>
</radialGradient>
<linearGradient id="paint14_linear_11321_12428" x1="5.27858" y1="16.6651" x2="29.3009" y2="25.1457" gradientUnits="userSpaceOnUse">
<stop stop-color="white"/>
<stop offset="1" stop-opacity="0"/>
</linearGradient>
</defs>
</svg>
