<svg width="400" height="150" viewBox="0 0 400 150" fill="none" xmlns="http://www.w3.org/2000/svg">
<path d="M182.818 56.2109H197.486C200.615 56.2109 203.441 56.9576 205.966 58.451C208.526 59.9088 210.535 62.0244 211.993 64.7979C213.486 67.5713 214.233 70.8247 214.233 74.5582C214.233 78.5406 213.504 81.9718 212.046 84.8519C210.588 87.6964 208.579 89.8653 206.019 91.3588C203.495 92.8166 200.65 93.5454 197.486 93.5454H182.818V56.2109ZM196.739 87.1986C199.619 87.1986 202.001 86.1319 203.886 83.9985C205.77 81.8651 206.713 78.7183 206.713 74.5582C206.713 71.9981 206.268 69.8114 205.379 67.998C204.49 66.1846 203.281 64.8334 201.752 63.9445C200.259 63.0201 198.588 62.5578 196.739 62.5578H190.232V87.1986H196.739Z" fill="#141414"/>
<path d="M230.741 72.4248C229.247 72.4248 228.056 73.047 227.167 74.2915C226.278 75.536 225.834 76.9938 225.834 78.665V93.5454H218.953V66.6646H225.834V70.1847C226.367 69.0469 227.096 68.1758 228.02 67.5713C228.945 66.9668 230.029 66.6646 231.274 66.6646H234.581V72.4248H230.741Z" fill="#141414"/>
<path d="M238.33 66.6646H245.211V93.5454H238.33V66.6646ZM245.531 55.7309V62.7711H238.117V55.7309H245.531Z" fill="#141414"/>
<path d="M253.755 72.4248H248.742V66.6646H253.755V62.9845C253.755 60.4244 254.395 58.4688 255.675 57.1176C256.956 55.7665 258.787 55.0909 261.169 55.0909H267.729V60.8511H263.463C262.503 60.8511 261.792 61.1 261.329 61.5978C260.867 62.06 260.636 62.8423 260.636 63.9445V66.6646H268.263V72.4248H260.636V93.5454H253.755V72.4248Z" fill="#141414"/>
<path d="M281.524 57.2776V66.6646H288.778V72.4248H281.524V84.8519C281.524 86.8074 282.413 87.7852 284.191 87.7852H288.618V93.5454H282.164C279.746 93.5454 277.88 92.9054 276.564 91.6254C275.284 90.3098 274.644 88.3008 274.644 85.5986V72.4248H269.631V66.6646H274.644V60.1577L281.524 57.2776Z" fill="#141414"/>
<path d="M151.79 92.7402C151.79 94.6977 151.061 96.4139 149.89 97.7302C149.876 97.7457 149.867 97.7646 149.863 97.7849C149.845 97.8691 149.92 97.9432 150.004 97.9226C153.38 97.0907 156.11 94.2067 156.11 90.4194V70.7859C156.11 64.9821 152.868 59.6192 147.606 56.7173L126.358 45L122.148 47.3816L143.286 59.038C148.549 61.9399 151.79 67.3029 151.79 73.1067V92.7402Z" fill="url(#paint0_linear_11321_12427)"/>
<path d="M151.79 92.7402C151.79 94.6977 151.061 96.4139 149.89 97.7302C149.876 97.7457 149.867 97.7646 149.863 97.7849C149.845 97.8691 149.92 97.9432 150.004 97.9226C153.38 97.0907 156.11 94.2067 156.11 90.4194V70.7859C156.11 64.9821 152.868 59.6192 147.606 56.7173L126.358 45L122.148 47.3816L143.286 59.038C148.549 61.9399 151.79 67.3029 151.79 73.1067V92.7402Z" fill="url(#paint1_linear_11321_12427)"/>
<path d="M151.79 92.7402C151.79 94.6977 151.061 96.4139 149.89 97.7302C149.876 97.7457 149.867 97.7646 149.863 97.7849C149.845 97.8691 149.92 97.9432 150.004 97.9226C153.38 97.0907 156.11 94.2067 156.11 90.4194V70.7859C156.11 64.9821 152.868 59.6192 147.606 56.7173L126.358 45L122.148 47.3816L143.286 59.038C148.549 61.9399 151.79 67.3029 151.79 73.1067V92.7402Z" fill="url(#paint2_radial_11321_12427)" fill-opacity="0.2"/>
<path d="M151.79 92.7402C151.79 94.6977 151.061 96.4139 149.89 97.7302C149.876 97.7457 149.867 97.7646 149.863 97.7849C149.845 97.8691 149.92 97.9432 150.004 97.9226C153.38 97.0907 156.11 94.2067 156.11 90.4194V70.7859C156.11 64.9821 152.868 59.6192 147.606 56.7173L126.358 45L122.148 47.3816L143.286 59.038C148.549 61.9399 151.79 67.3029 151.79 73.1067V92.7402Z" fill="url(#paint3_radial_11321_12427)" fill-opacity="0.1"/>
<path d="M151.79 92.7402C151.79 94.6977 151.061 96.4139 149.89 97.7302C149.876 97.7457 149.867 97.7646 149.863 97.7849C149.845 97.8691 149.92 97.9432 150.004 97.9226C153.38 97.0907 156.11 94.2067 156.11 90.4194V70.7859C156.11 64.9821 152.868 59.6192 147.606 56.7173L126.358 45L122.148 47.3816L143.286 59.038C148.549 61.9399 151.79 67.3029 151.79 73.1067V92.7402Z" fill="url(#paint4_linear_11321_12427)" fill-opacity="0.2"/>
<path d="M145.851 96.0923V76.4588C145.851 70.6551 142.609 65.2921 137.347 62.3902L116.209 50.7338L120.418 48.3522L141.666 60.0694C146.929 62.9714 150.171 68.3343 150.171 74.1381V93.7716C150.171 97.5588 147.441 100.443 144.064 101.275C143.981 101.295 143.905 101.221 143.923 101.137C143.927 101.117 143.937 101.098 143.951 101.082C145.122 99.7661 145.851 98.0499 145.851 96.0923Z" fill="url(#paint5_linear_11321_12427)"/>
<path d="M145.851 96.0923V76.4588C145.851 70.6551 142.609 65.2921 137.347 62.3902L116.209 50.7338L120.418 48.3522L141.666 60.0694C146.929 62.9714 150.171 68.3343 150.171 74.1381V93.7716C150.171 97.5588 147.441 100.443 144.064 101.275C143.981 101.295 143.905 101.221 143.923 101.137C143.927 101.117 143.937 101.098 143.951 101.082C145.122 99.7661 145.851 98.0499 145.851 96.0923Z" fill="url(#paint6_linear_11321_12427)"/>
<path d="M145.851 96.0923V76.4588C145.851 70.6551 142.609 65.2921 137.347 62.3902L116.209 50.7338L120.418 48.3522L141.666 60.0694C146.929 62.9714 150.171 68.3343 150.171 74.1381V93.7716C150.171 97.5588 147.441 100.443 144.064 101.275C143.981 101.295 143.905 101.221 143.923 101.137C143.927 101.117 143.937 101.098 143.951 101.082C145.122 99.7661 145.851 98.0499 145.851 96.0923Z" fill="url(#paint7_radial_11321_12427)" fill-opacity="0.2"/>
<path d="M145.851 96.0923V76.4588C145.851 70.6551 142.609 65.2921 137.347 62.3902L116.209 50.7338L120.418 48.3522L141.666 60.0694C146.929 62.9714 150.171 68.3343 150.171 74.1381V93.7716C150.171 97.5588 147.441 100.443 144.064 101.275C143.981 101.295 143.905 101.221 143.923 101.137C143.927 101.117 143.937 101.098 143.951 101.082C145.122 99.7661 145.851 98.0499 145.851 96.0923Z" fill="url(#paint8_radial_11321_12427)" fill-opacity="0.1"/>
<path d="M145.851 96.0923V76.4588C145.851 70.6551 142.609 65.2921 137.347 62.3902L116.209 50.7338L120.418 48.3522L141.666 60.0694C146.929 62.9714 150.171 68.3343 150.171 74.1381V93.7716C150.171 97.5588 147.441 100.443 144.064 101.275C143.981 101.295 143.905 101.221 143.923 101.137C143.927 101.117 143.937 101.098 143.951 101.082C145.122 99.7661 145.851 98.0499 145.851 96.0923Z" fill="url(#paint9_linear_11321_12427)" fill-opacity="0.2"/>
<path fill-rule="evenodd" clip-rule="evenodd" d="M110 54.2459L114.264 51.8333L135.512 63.5506C140.775 66.4524 144.016 71.8154 144.016 77.6192V97.3495L144.016 97.3492C143.943 103.248 137.238 106.913 131.868 103.952L112.61 93.3324L110 91.9303V54.2459ZM139.697 80.0012V91.3991L125.388 83.5088V62.7318L131.193 65.9326C136.455 68.8344 139.697 74.1974 139.697 80.0012ZM119.989 59.7543L122.149 60.9453V85.2941L122.375 85.4157L139.697 94.9675V97.1726L120.017 86.3201L119.989 86.3358V59.7543ZM116.479 57.8189V88.2088L116.581 88.2642L116.479 88.3216L139.67 101.11C139.476 102.13 138.258 102.712 137.267 102.166L114.32 89.5112V56.6279L116.479 57.8189Z" fill="url(#paint10_linear_11321_12427)"/>
<path fill-rule="evenodd" clip-rule="evenodd" d="M110 54.2459L114.264 51.8333L135.512 63.5506C140.775 66.4524 144.016 71.8154 144.016 77.6192V97.3495L144.016 97.3492C143.943 103.248 137.238 106.913 131.868 103.952L112.61 93.3324L110 91.9303V54.2459ZM139.697 80.0012V91.3991L125.388 83.5088V62.7318L131.193 65.9326C136.455 68.8344 139.697 74.1974 139.697 80.0012ZM119.989 59.7543L122.149 60.9453V85.2941L122.375 85.4157L139.697 94.9675V97.1726L120.017 86.3201L119.989 86.3358V59.7543ZM116.479 57.8189V88.2088L116.581 88.2642L116.479 88.3216L139.67 101.11C139.476 102.13 138.258 102.712 137.267 102.166L114.32 89.5112V56.6279L116.479 57.8189Z" fill="url(#paint11_linear_11321_12427)"/>
<path fill-rule="evenodd" clip-rule="evenodd" d="M110 54.2459L114.264 51.8333L135.512 63.5506C140.775 66.4524 144.016 71.8154 144.016 77.6192V97.3495L144.016 97.3492C143.943 103.248 137.238 106.913 131.868 103.952L112.61 93.3324L110 91.9303V54.2459ZM139.697 80.0012V91.3991L125.388 83.5088V62.7318L131.193 65.9326C136.455 68.8344 139.697 74.1974 139.697 80.0012ZM119.989 59.7543L122.149 60.9453V85.2941L122.375 85.4157L139.697 94.9675V97.1726L120.017 86.3201L119.989 86.3358V59.7543ZM116.479 57.8189V88.2088L116.581 88.2642L116.479 88.3216L139.67 101.11C139.476 102.13 138.258 102.712 137.267 102.166L114.32 89.5112V56.6279L116.479 57.8189Z" fill="url(#paint12_radial_11321_12427)" fill-opacity="0.2"/>
<path fill-rule="evenodd" clip-rule="evenodd" d="M110 54.2459L114.264 51.8333L135.512 63.5506C140.775 66.4524 144.016 71.8154 144.016 77.6192V97.3495L144.016 97.3492C143.943 103.248 137.238 106.913 131.868 103.952L112.61 93.3324L110 91.9303V54.2459ZM139.697 80.0012V91.3991L125.388 83.5088V62.7318L131.193 65.9326C136.455 68.8344 139.697 74.1974 139.697 80.0012ZM119.989 59.7543L122.149 60.9453V85.2941L122.375 85.4157L139.697 94.9675V97.1726L120.017 86.3201L119.989 86.3358V59.7543ZM116.479 57.8189V88.2088L116.581 88.2642L116.479 88.3216L139.67 101.11C139.476 102.13 138.258 102.712 137.267 102.166L114.32 89.5112V56.6279L116.479 57.8189Z" fill="url(#paint13_radial_11321_12427)" fill-opacity="0.1"/>
<path fill-rule="evenodd" clip-rule="evenodd" d="M110 54.2459L114.264 51.8333L135.512 63.5506C140.775 66.4524 144.016 71.8154 144.016 77.6192V97.3495L144.016 97.3492C143.943 103.248 137.238 106.913 131.868 103.952L112.61 93.3324L110 91.9303V54.2459ZM139.697 80.0012V91.3991L125.388 83.5088V62.7318L131.193 65.9326C136.455 68.8344 139.697 74.1974 139.697 80.0012ZM119.989 59.7543L122.149 60.9453V85.2941L122.375 85.4157L139.697 94.9675V97.1726L120.017 86.3201L119.989 86.3358V59.7543ZM116.479 57.8189V88.2088L116.581 88.2642L116.479 88.3216L139.67 101.11C139.476 102.13 138.258 102.712 137.267 102.166L114.32 89.5112V56.6279L116.479 57.8189Z" fill="url(#paint14_linear_11321_12427)" fill-opacity="0.2"/>
<defs>
<linearGradient id="paint0_linear_11321_12427" x1="109.232" y1="75" x2="155.596" y2="70.8552" gradientUnits="userSpaceOnUse">
<stop stop-color="#FF3873"/>
<stop offset="0.473958" stop-color="#711EFF"/>
<stop offset="1" stop-color="#3FE5FF"/>
</linearGradient>
<linearGradient id="paint1_linear_11321_12427" x1="112.858" y1="47.7613" x2="145.227" y2="75.2602" gradientUnits="userSpaceOnUse">
<stop stop-color="#F6F063"/>
<stop offset="1" stop-color="#E07774" stop-opacity="0"/>
</linearGradient>
<radialGradient id="paint2_radial_11321_12427" cx="0" cy="0" r="1" gradientUnits="userSpaceOnUse" gradientTransform="translate(111.215 66.0916) rotate(65.584) scale(13.4407 11.5341)">
<stop offset="0.925861" stop-color="white"/>
<stop offset="1" stop-color="white" stop-opacity="0"/>
</radialGradient>
<radialGradient id="paint3_radial_11321_12427" cx="0" cy="0" r="1" gradientUnits="userSpaceOnUse" gradientTransform="translate(117.912 60.5273) rotate(59.0024) scale(8.531 11.6514)">
<stop offset="0.0864251" stop-color="white"/>
<stop offset="0.94115" stop-color="white" stop-opacity="0"/>
</radialGradient>
<linearGradient id="paint4_linear_11321_12427" x1="115.278" y1="61.6651" x2="139.301" y2="70.1457" gradientUnits="userSpaceOnUse">
<stop stop-color="white"/>
<stop offset="1" stop-opacity="0"/>
</linearGradient>
<linearGradient id="paint5_linear_11321_12427" x1="109.232" y1="75" x2="155.596" y2="70.8552" gradientUnits="userSpaceOnUse">
<stop stop-color="#FF3873"/>
<stop offset="0.473958" stop-color="#711EFF"/>
<stop offset="1" stop-color="#3FE5FF"/>
</linearGradient>
<linearGradient id="paint6_linear_11321_12427" x1="112.858" y1="47.7613" x2="145.227" y2="75.2602" gradientUnits="userSpaceOnUse">
<stop stop-color="#F6F063"/>
<stop offset="1" stop-color="#E07774" stop-opacity="0"/>
</linearGradient>
<radialGradient id="paint7_radial_11321_12427" cx="0" cy="0" r="1" gradientUnits="userSpaceOnUse" gradientTransform="translate(111.215 66.0916) rotate(65.584) scale(13.4407 11.5341)">
<stop offset="0.925861" stop-color="white"/>
<stop offset="1" stop-color="white" stop-opacity="0"/>
</radialGradient>
<radialGradient id="paint8_radial_11321_12427" cx="0" cy="0" r="1" gradientUnits="userSpaceOnUse" gradientTransform="translate(117.912 60.5273) rotate(59.0024) scale(8.531 11.6514)">
<stop offset="0.0864251" stop-color="white"/>
<stop offset="0.94115" stop-color="white" stop-opacity="0"/>
</radialGradient>
<linearGradient id="paint9_linear_11321_12427" x1="115.278" y1="61.6651" x2="139.301" y2="70.1457" gradientUnits="userSpaceOnUse">
<stop stop-color="white"/>
<stop offset="1" stop-opacity="0"/>
</linearGradient>
<linearGradient id="paint10_linear_11321_12427" x1="109.232" y1="75" x2="155.596" y2="70.8552" gradientUnits="userSpaceOnUse">
<stop stop-color="#FF3873"/>
<stop offset="0.473958" stop-color="#711EFF"/>
<stop offset="1" stop-color="#3FE5FF"/>
</linearGradient>
<linearGradient id="paint11_linear_11321_12427" x1="112.858" y1="47.7613" x2="145.227" y2="75.2602" gradientUnits="userSpaceOnUse">
<stop stop-color="#F6F063"/>
<stop offset="1" stop-color="#E07774" stop-opacity="0"/>
</linearGradient>
<radialGradient id="paint12_radial_11321_12427" cx="0" cy="0" r="1" gradientUnits="userSpaceOnUse" gradientTransform="translate(111.216 66.0916) rotate(65.584) scale(13.4407 11.5341)">
<stop offset="0.925861" stop-color="white"/>
<stop offset="1" stop-color="white" stop-opacity="0"/>
</radialGradient>
<radialGradient id="paint13_radial_11321_12427" cx="0" cy="0" r="1" gradientUnits="userSpaceOnUse" gradientTransform="translate(117.913 60.5273) rotate(59.0024) scale(8.531 11.6514)">
<stop offset="0.0864251" stop-color="white"/>
<stop offset="0.94115" stop-color="white" stop-opacity="0"/>
</radialGradient>
<linearGradient id="paint14_linear_11321_12427" x1="115.279" y1="61.6651" x2="139.301" y2="70.1457" gradientUnits="userSpaceOnUse">
<stop stop-color="white"/>
<stop offset="1" stop-opacity="0"/>
</linearGradient>
</defs>
</svg>
