<svg width="400" height="150" viewBox="0 0 400 150" fill="none" xmlns="http://www.w3.org/2000/svg">
<g clip-path="url(#clip0_11321_12418)">
<path d="M85.2441 96.9842C88.4127 101.392 92.4772 105.079 97.1709 107.806C101.865 110.532 107.082 112.235 112.48 112.804C109.703 108.625 105.666 104.78 100.626 101.853C95.5858 98.9253 90.2484 97.3262 85.2441 96.9842Z" fill="url(#paint0_linear_11321_12418)"/>
<path d="M107.397 90.1965C97.6875 84.5553 87.178 83.1176 79.6582 85.6573C80.3842 88.0566 81.3415 90.3798 82.5169 92.5939C89.0504 92.4425 96.1837 94.2169 102.821 98.0722C109.459 101.927 114.536 107.248 117.643 113C120.149 112.923 122.643 112.604 125.089 112.047C123.568 104.257 117.105 95.8388 107.397 90.1965Z" fill="url(#paint1_linear_11321_12418)"/>
<path d="M153.668 67.299C152.434 62.2775 150.2 57.5563 147.1 53.4173C144.001 49.2782 140.099 45.8063 135.628 43.2086C131.157 40.611 126.208 38.941 121.077 38.2984C115.946 37.6557 110.738 38.0536 105.765 39.4683C114.074 40.4851 123.297 43.6044 132.342 48.8592C141.387 54.1139 148.672 60.5799 153.668 67.299Z" fill="url(#paint2_linear_11321_12418)"/>
<path d="M141.579 85.7148C137.326 78.6514 130.04 71.8878 121.065 66.6739C112.09 61.4598 102.607 58.4816 94.3717 58.2846C87.1265 58.1129 81.6887 60.2192 79.4567 64.0618C79.444 64.0845 79.4262 64.1061 79.4122 64.1291C79.2113 64.8498 79.0385 65.5716 78.8809 66.2963C81.9976 65.0659 85.6088 64.3808 89.6242 64.3044C98.5536 64.1368 108.547 66.9929 117.769 72.3505C126.991 77.7083 134.428 84.9777 138.704 92.8152C140.621 96.3463 141.817 99.8227 142.291 103.144C142.843 102.651 143.384 102.141 143.909 101.611C143.923 101.587 143.932 101.562 143.946 101.536C146.178 97.6899 145.315 91.9241 141.579 85.7148Z" fill="url(#paint3_linear_11321_12418)"/>
<path d="M114.236 78.4262C100.492 70.4413 85.3037 69.1904 78 74.7629C78.0143 76.5071 78.1477 78.2483 78.3991 79.9745C80.5476 79.3231 82.762 78.913 85.0012 78.7517C93.1629 78.1377 102.161 80.4118 110.327 85.1579C118.492 89.9042 124.929 96.598 128.44 103.987C129.41 106.011 130.15 108.138 130.646 110.327C132.271 109.69 133.85 108.944 135.374 108.094C136.596 98.9874 127.985 86.4125 114.236 78.4262Z" fill="url(#paint4_linear_11321_12418)"/>
<path d="M148.649 73.8924C144.347 66.8366 136.998 60.054 127.959 54.8056C118.92 49.5572 109.401 46.532 101.139 46.2892C94.8406 46.1075 89.9621 47.6341 87.4326 50.5182C97.9357 48.7386 111.789 51.7295 125.217 59.5303C138.645 67.3311 148.11 77.8862 151.763 87.8909C153.015 84.267 151.926 79.273 148.649 73.8924Z" fill="url(#paint5_linear_11321_12418)"/>
<path d="M187.369 61.2244H193.781V82.6177C193.781 84.5954 193.337 86.3131 192.448 87.7714C191.569 89.2297 190.345 90.3533 188.777 91.1422C187.209 91.9313 185.387 92.3258 183.309 92.3258C181.461 92.3258 179.784 92.0012 178.275 91.3519C176.777 90.6927 175.589 89.694 174.71 88.3557C173.831 87.0073 173.396 85.3144 173.406 83.277H179.863C179.883 84.0861 180.048 84.7801 180.358 85.3594C180.677 85.9287 181.112 86.3682 181.661 86.6778C182.22 86.9773 182.88 87.1271 183.639 87.1271C184.438 87.1271 185.112 86.9574 185.661 86.6178C186.22 86.2684 186.645 85.7588 186.935 85.0897C187.224 84.4205 187.369 83.5965 187.369 82.6177V61.2244ZM213.781 82.1084V68.8948H220.163V91.9062H214.036V87.7264H213.796C213.277 89.0748 212.413 90.1585 211.204 90.9774C210.006 91.7963 208.543 92.2058 206.815 92.2058C205.277 92.2058 203.923 91.8563 202.755 91.1572C201.586 90.458 200.672 89.4643 200.013 88.1759C199.364 86.8876 199.035 85.3444 199.025 83.5466V68.8948H205.407V82.408C205.417 83.7664 205.781 84.8401 206.5 85.629C207.219 86.4181 208.183 86.8126 209.392 86.8126C210.161 86.8126 210.88 86.6377 211.549 86.2883C212.218 85.9287 212.758 85.3993 213.167 84.7002C213.586 84.001 213.791 83.1371 213.781 82.1084ZM225.268 100.535V68.8948H231.56V72.7602H231.845C232.125 72.1409 232.529 71.5116 233.058 70.8725C233.598 70.2233 234.297 69.684 235.156 69.2544C236.025 68.8149 237.103 68.5953 238.392 68.5953C240.07 68.5953 241.618 69.0348 243.036 69.9137C244.454 70.7825 245.588 72.0959 246.437 73.8537C247.286 75.6015 247.71 77.7938 247.71 80.4305C247.71 82.9974 247.296 85.1647 246.467 86.9323C245.648 88.6902 244.529 90.0235 243.111 90.9324C241.703 91.8312 240.125 92.2808 238.377 92.2808C237.138 92.2808 236.085 92.0759 235.216 91.6665C234.357 91.257 233.653 90.7428 233.103 90.1234C232.554 89.4943 232.134 88.8601 231.845 88.2209H231.65V100.535H225.268ZM231.515 80.4005C231.515 81.7688 231.705 82.9623 232.085 83.9811C232.464 84.9999 233.013 85.7937 233.733 86.363C234.452 86.9225 235.325 87.2021 236.354 87.2021C237.393 87.2021 238.272 86.9173 238.991 86.3483C239.71 85.7689 240.254 84.9699 240.624 83.9511C241.003 82.9224 241.193 81.7388 241.193 80.4005C241.193 79.0721 241.009 77.9037 240.639 76.895C240.269 75.8862 239.725 75.0971 239.006 74.5278C238.287 73.9585 237.403 73.674 236.354 73.674C235.316 73.674 234.437 73.9487 233.718 74.4978C233.008 75.0472 232.464 75.8262 232.085 76.835C231.705 77.8437 231.515 79.0323 231.515 80.4005ZM251.965 91.9062V68.8948H258.347V91.9062H251.965ZM255.171 65.9286C254.222 65.9286 253.408 65.6141 252.729 64.9848C252.06 64.3456 251.725 63.5816 251.725 62.6926C251.725 61.8137 252.06 61.0596 252.729 60.4304C253.408 59.7912 254.222 59.4716 255.171 59.4716C256.12 59.4716 256.929 59.7912 257.598 60.4304C258.277 61.0596 258.617 61.8137 258.617 62.6926C258.617 63.5816 258.277 64.3456 257.598 64.9848C256.929 65.6141 256.12 65.9286 255.171 65.9286ZM275.699 68.8948V73.689H261.841V68.8948H275.699ZM264.988 63.3816H271.37V84.8352C271.37 85.4244 271.459 85.8837 271.639 86.2133C271.819 86.533 272.069 86.7577 272.388 86.8876C272.718 87.0174 273.097 87.0823 273.527 87.0823C273.826 87.0823 274.126 87.0573 274.426 87.0073C274.725 86.9473 274.955 86.9026 275.115 86.8726L276.119 91.6217C275.799 91.7216 275.349 91.8364 274.77 91.9662C274.191 92.1059 273.487 92.191 272.658 92.2208C271.12 92.2808 269.772 92.0759 268.613 91.6067C267.464 91.1373 266.57 90.4081 265.931 89.4193C265.292 88.4305 264.977 87.1822 264.988 85.674V63.3816ZM290.096 92.3558C287.729 92.3558 285.692 91.8762 283.984 90.9174C282.286 89.9487 280.978 88.5805 280.059 86.8126C279.14 85.0348 278.68 82.9325 278.68 80.5055C278.68 78.1384 279.14 76.0609 280.059 74.2733C280.978 72.4855 282.271 71.0921 283.939 70.0934C285.617 69.0945 287.584 68.5953 289.842 68.5953C291.36 68.5953 292.773 68.84 294.081 69.3294C295.4 69.8087 296.548 70.5329 297.527 71.5016C298.516 72.4705 299.285 73.689 299.834 75.1571C300.383 76.6154 300.658 78.323 300.658 80.2808V82.0334H281.227V78.0784H294.65C294.65 77.1596 294.451 76.3456 294.051 75.6364C293.652 74.9274 293.098 74.3731 292.388 73.9735C291.689 73.5641 290.875 73.3592 289.946 73.3592C288.978 73.3592 288.119 73.584 287.37 74.0335C286.63 74.473 286.051 75.0671 285.632 75.8162C285.212 76.5554 284.998 77.3792 284.987 78.2881V82.0484C284.987 83.187 285.197 84.1709 285.617 84.9999C286.046 85.8289 286.651 86.468 287.429 86.9176C288.208 87.3669 289.132 87.5916 290.201 87.5916C290.91 87.5916 291.559 87.4918 292.149 87.2921C292.738 87.0922 293.242 86.7927 293.662 86.393C294.081 85.9937 294.401 85.5043 294.62 84.9249L300.523 85.3144C300.224 86.7327 299.609 87.9711 298.681 89.0298C297.762 90.0786 296.573 90.8975 295.115 91.4867C293.667 92.0661 291.994 92.3558 290.096 92.3558ZM304.823 91.9062V68.8948H311.01V72.9099H311.25C311.669 71.4816 312.373 70.403 313.363 69.6739C314.35 68.9349 315.489 68.5653 316.778 68.5653C317.097 68.5653 317.441 68.5852 317.812 68.6253C318.182 68.6652 318.505 68.72 318.787 68.7901V74.453C318.487 74.363 318.072 74.2831 317.542 74.2133C317.012 74.1434 316.527 74.1085 316.089 74.1085C315.149 74.1085 314.31 74.3131 313.572 74.7226C312.843 75.1222 312.264 75.6814 311.834 76.4005C311.415 77.1198 311.205 77.9485 311.205 78.8874V91.9062H304.823Z" fill="#111726"/>
</g>
<defs>
<linearGradient id="paint0_linear_11321_12418" x1="128.391" y1="53.2344" x2="93.6252" y2="113" gradientUnits="userSpaceOnUse">
<stop offset="0.0001" stop-color="#A4D756"/>
<stop offset="1" stop-color="#00B6E7"/>
</linearGradient>
<linearGradient id="paint1_linear_11321_12418" x1="128.39" y1="53.2344" x2="93.6246" y2="113" gradientUnits="userSpaceOnUse">
<stop offset="0.0001" stop-color="#A4D756"/>
<stop offset="1" stop-color="#00B6E7"/>
</linearGradient>
<linearGradient id="paint2_linear_11321_12418" x1="128.391" y1="53.2344" x2="93.6249" y2="113" gradientUnits="userSpaceOnUse">
<stop offset="0.0001" stop-color="#A4D756"/>
<stop offset="1" stop-color="#00B6E7"/>
</linearGradient>
<linearGradient id="paint3_linear_11321_12418" x1="128.391" y1="53.2344" x2="93.6249" y2="113" gradientUnits="userSpaceOnUse">
<stop offset="0.0001" stop-color="#A4D756"/>
<stop offset="1" stop-color="#00B6E7"/>
</linearGradient>
<linearGradient id="paint4_linear_11321_12418" x1="128.391" y1="53.2344" x2="93.625" y2="113" gradientUnits="userSpaceOnUse">
<stop offset="0.0001" stop-color="#A4D756"/>
<stop offset="1" stop-color="#00B6E7"/>
</linearGradient>
<linearGradient id="paint5_linear_11321_12418" x1="128.391" y1="53.2344" x2="93.625" y2="113" gradientUnits="userSpaceOnUse">
<stop offset="0.0001" stop-color="#A4D756"/>
<stop offset="1" stop-color="#00B6E7"/>
</linearGradient>
<clipPath id="clip0_11321_12418">
<rect width="243.75" height="75" fill="white" transform="translate(78 38)"/>
</clipPath>
</defs>
</svg>
