<svg width="244" height="75" viewBox="0 0 244 75" fill="none" xmlns="http://www.w3.org/2000/svg">
<g clip-path="url(#clip0_11321_12419)">
<path d="M7.24414 58.9842C10.4127 63.3916 14.4772 67.0793 19.1709 69.8058C23.8647 72.532 29.0817 74.2355 34.4801 74.8043C31.7027 70.6249 27.6656 66.78 22.6257 63.8527C17.5858 60.9253 12.2484 59.3262 7.24414 58.9842Z" fill="url(#paint0_linear_11321_12419)"/>
<path d="M29.3973 52.1965C19.6875 46.5553 9.17803 45.1176 1.6582 47.6573C2.38415 50.0566 3.34155 52.3798 4.51692 54.5939C11.0504 54.4425 18.1837 56.2169 24.8213 60.0722C31.4591 63.9274 36.5359 69.2482 39.6425 75C42.1494 74.9231 44.6431 74.6037 47.0886 74.0466C45.5682 66.2573 39.1049 57.8388 29.3973 52.1965Z" fill="url(#paint1_linear_11321_12419)"/>
<path d="M75.6683 29.299C74.4339 24.2775 72.2 19.5563 69.1004 15.4173C66.0008 11.2782 62.0989 7.80626 57.6278 5.20863C53.1566 2.61101 48.2078 0.941023 43.0771 0.298381C37.9461 -0.344261 32.7383 0.0536234 27.7646 1.46828C36.0737 2.48515 45.2968 5.60442 54.3418 10.8592C63.3871 16.1139 70.6717 22.5799 75.6683 29.299Z" fill="url(#paint2_linear_11321_12419)"/>
<path d="M63.5791 47.7148C59.3259 40.6514 52.0401 33.8878 43.0647 28.6739C34.0895 23.4598 24.6072 20.4816 16.3717 20.2846C9.12648 20.1129 3.68872 22.2192 1.45667 26.0618C1.44395 26.0845 1.42616 26.1061 1.41218 26.1291C1.21134 26.8498 1.03847 27.5716 0.880859 28.2963C3.9976 27.0659 7.60878 26.3808 11.6242 26.3044C20.5536 26.1368 30.5469 28.9929 39.7689 34.3505C48.9906 39.7083 56.4278 46.9777 60.7037 54.8152C62.6207 58.3463 63.8167 61.8227 64.2909 65.1441C64.8426 64.6509 65.384 64.1412 65.909 63.6113C65.923 63.5871 65.9319 63.5616 65.9458 63.5363C68.178 59.6899 67.3148 53.9241 63.5791 47.7148Z" fill="url(#paint3_linear_11321_12419)"/>
<path d="M36.2365 40.4262C22.4921 32.4413 7.30374 31.1904 0 36.7629C0.014346 38.5071 0.147695 40.2483 0.399123 41.9745C2.54763 41.3231 4.76196 40.913 7.0012 40.7517C15.1629 40.1377 24.161 42.4118 32.3266 47.1579C40.492 51.9042 46.9289 58.598 50.4396 65.9866C51.4102 68.0109 52.1503 70.1377 52.6463 72.327C54.2707 71.6902 55.8502 70.9439 57.3736 70.0936C58.5963 60.9874 49.9847 48.4125 36.2365 40.4262Z" fill="url(#paint4_linear_11321_12419)"/>
<path d="M70.6486 35.8924C66.3474 28.8366 58.9978 22.054 49.9589 16.8056C40.9203 11.5572 31.4009 8.53202 23.1389 8.28923C16.8406 8.10747 11.9621 9.63405 9.43262 12.5182C19.9357 10.7386 33.7894 13.7295 47.2172 21.5303C60.6453 29.3311 70.1098 39.8862 73.763 49.8909C75.015 46.267 73.9257 41.273 70.6486 35.8924Z" fill="url(#paint5_linear_11321_12419)"/>
<path d="M109.369 23.2244H115.781V44.6177C115.781 46.5954 115.337 48.3131 114.448 49.7714C113.569 51.2297 112.345 52.3533 110.777 53.1422C109.209 53.9313 107.387 54.3258 105.309 54.3258C103.461 54.3258 101.784 54.0012 100.275 53.3519C98.7772 52.6927 97.5887 51.694 96.7098 50.3557C95.8309 49.0073 95.3963 47.3144 95.4064 45.277H101.863C101.883 46.0861 102.048 46.7801 102.358 47.3594C102.677 47.9287 103.112 48.3682 103.661 48.6778C104.22 48.9773 104.88 49.1271 105.639 49.1271C106.438 49.1271 107.112 48.9574 107.661 48.6178C108.22 48.2684 108.645 47.7588 108.935 47.0897C109.224 46.4205 109.369 45.5965 109.369 44.6177V23.2244ZM135.781 44.1084V30.8948H142.163V53.9062H136.036V49.7264H135.796C135.277 51.0748 134.413 52.1585 133.204 52.9774C132.006 53.7963 130.543 54.2058 128.815 54.2058C127.277 54.2058 125.923 53.8563 124.755 53.1572C123.586 52.458 122.672 51.4643 122.013 50.1759C121.364 48.8876 121.035 47.3444 121.025 45.5466V30.8948H127.407V44.408C127.417 45.7664 127.781 46.8401 128.5 47.629C129.219 48.4181 130.183 48.8126 131.392 48.8126C132.161 48.8126 132.88 48.6377 133.549 48.2883C134.218 47.9287 134.758 47.3993 135.167 46.7002C135.586 46.001 135.791 45.1371 135.781 44.1084ZM147.268 62.5355V30.8948H153.56V34.7602H153.845C154.125 34.1409 154.529 33.5116 155.058 32.8725C155.598 32.2233 156.297 31.684 157.156 31.2544C158.025 30.8149 159.103 30.5953 160.392 30.5953C162.07 30.5953 163.618 31.0348 165.036 31.9137C166.454 32.7825 167.588 34.0959 168.437 35.8537C169.286 37.6015 169.71 39.7938 169.71 42.4305C169.71 44.9974 169.296 47.1647 168.467 48.9323C167.648 50.6902 166.529 52.0235 165.111 52.9324C163.703 53.8312 162.125 54.2808 160.377 54.2808C159.138 54.2808 158.085 54.0759 157.216 53.6665C156.357 53.257 155.653 52.7428 155.103 52.1234C154.554 51.4943 154.134 50.8601 153.845 50.2209H153.65V62.5355H147.268ZM153.515 42.4005C153.515 43.7688 153.705 44.9623 154.085 45.9811C154.464 46.9999 155.013 47.7937 155.733 48.363C156.452 48.9225 157.325 49.2021 158.354 49.2021C159.393 49.2021 160.272 48.9173 160.991 48.3483C161.71 47.7689 162.254 46.9699 162.624 45.9511C163.003 44.9224 163.193 43.7388 163.193 42.4005C163.193 41.0721 163.009 39.9037 162.639 38.895C162.269 37.8862 161.725 37.0971 161.006 36.5278C160.287 35.9585 159.403 35.674 158.354 35.674C157.316 35.674 156.437 35.9487 155.718 36.4978C155.008 37.0472 154.464 37.8262 154.085 38.835C153.705 39.8437 153.515 41.0323 153.515 42.4005ZM173.965 53.9062V30.8948H180.347V53.9062H173.965ZM177.171 27.9286C176.222 27.9286 175.408 27.6141 174.729 26.9848C174.06 26.3456 173.725 25.5816 173.725 24.6926C173.725 23.8137 174.06 23.0596 174.729 22.4304C175.408 21.7912 176.222 21.4716 177.171 21.4716C178.12 21.4716 178.929 21.7912 179.598 22.4304C180.277 23.0596 180.617 23.8137 180.617 24.6926C180.617 25.5816 180.277 26.3456 179.598 26.9848C178.929 27.6141 178.12 27.9286 177.171 27.9286ZM197.699 30.8948V35.689H183.841V30.8948H197.699ZM186.988 25.3816H193.37V46.8352C193.37 47.4244 193.459 47.8837 193.639 48.2133C193.819 48.533 194.069 48.7577 194.388 48.8876C194.718 49.0174 195.097 49.0823 195.527 49.0823C195.826 49.0823 196.126 49.0573 196.426 49.0073C196.725 48.9473 196.955 48.9026 197.115 48.8726L198.119 53.6217C197.799 53.7216 197.349 53.8364 196.77 53.9662C196.191 54.1059 195.487 54.191 194.658 54.2208C193.12 54.2808 191.772 54.0759 190.613 53.6067C189.464 53.1373 188.57 52.4081 187.931 51.4193C187.292 50.4305 186.977 49.1822 186.988 47.674V25.3816ZM212.096 54.3558C209.729 54.3558 207.692 53.8762 205.984 52.9174C204.286 51.9487 202.978 50.5805 202.059 48.8126C201.14 47.0348 200.68 44.9325 200.68 42.5055C200.68 40.1384 201.14 38.0609 202.059 36.2733C202.978 34.4855 204.271 33.0921 205.939 32.0934C207.617 31.0945 209.584 30.5953 211.842 30.5953C213.36 30.5953 214.773 30.84 216.081 31.3294C217.4 31.8087 218.548 32.5329 219.527 33.5016C220.516 34.4705 221.285 35.689 221.834 37.1571C222.383 38.6154 222.658 40.323 222.658 42.2808V44.0334H203.227V40.0784H216.65C216.65 39.1596 216.451 38.3456 216.051 37.6364C215.652 36.9274 215.098 36.3731 214.388 35.9735C213.689 35.5641 212.875 35.3592 211.946 35.3592C210.978 35.3592 210.119 35.584 209.37 36.0335C208.63 36.473 208.051 37.0671 207.632 37.8162C207.212 38.5554 206.998 39.3792 206.987 40.2881V44.0484C206.987 45.187 207.197 46.1709 207.617 46.9999C208.046 47.8289 208.651 48.468 209.429 48.9176C210.208 49.3669 211.132 49.5916 212.201 49.5916C212.91 49.5916 213.559 49.4918 214.149 49.2921C214.738 49.0922 215.242 48.7927 215.662 48.393C216.081 47.9937 216.401 47.5043 216.62 46.9249L222.523 47.3144C222.224 48.7327 221.609 49.9711 220.681 51.0298C219.762 52.0786 218.573 52.8975 217.115 53.4867C215.667 54.0661 213.994 54.3558 212.096 54.3558ZM226.823 53.9062V30.8948H233.01V34.9099H233.25C233.669 33.4816 234.373 32.403 235.363 31.6739C236.35 30.9349 237.489 30.5653 238.778 30.5653C239.097 30.5653 239.441 30.5852 239.812 30.6253C240.182 30.6652 240.505 30.72 240.787 30.7901V36.453C240.487 36.363 240.072 36.2831 239.542 36.2133C239.012 36.1434 238.527 36.1085 238.089 36.1085C237.149 36.1085 236.31 36.3131 235.572 36.7226C234.843 37.1222 234.264 37.6814 233.834 38.4005C233.415 39.1198 233.205 39.9485 233.205 40.8874V53.9062H226.823Z" fill="#111726"/>
</g>
<defs>
<linearGradient id="paint0_linear_11321_12419" x1="50.3908" y1="15.2344" x2="15.6252" y2="75" gradientUnits="userSpaceOnUse">
<stop offset="0.0001" stop-color="#A4D756"/>
<stop offset="1" stop-color="#00B6E7"/>
</linearGradient>
<linearGradient id="paint1_linear_11321_12419" x1="50.3902" y1="15.2344" x2="15.6246" y2="75" gradientUnits="userSpaceOnUse">
<stop offset="0.0001" stop-color="#A4D756"/>
<stop offset="1" stop-color="#00B6E7"/>
</linearGradient>
<linearGradient id="paint2_linear_11321_12419" x1="50.3905" y1="15.2344" x2="15.6249" y2="75" gradientUnits="userSpaceOnUse">
<stop offset="0.0001" stop-color="#A4D756"/>
<stop offset="1" stop-color="#00B6E7"/>
</linearGradient>
<linearGradient id="paint3_linear_11321_12419" x1="50.3905" y1="15.2344" x2="15.6249" y2="75" gradientUnits="userSpaceOnUse">
<stop offset="0.0001" stop-color="#A4D756"/>
<stop offset="1" stop-color="#00B6E7"/>
</linearGradient>
<linearGradient id="paint4_linear_11321_12419" x1="50.3906" y1="15.2344" x2="15.625" y2="75" gradientUnits="userSpaceOnUse">
<stop offset="0.0001" stop-color="#A4D756"/>
<stop offset="1" stop-color="#00B6E7"/>
</linearGradient>
<linearGradient id="paint5_linear_11321_12419" x1="50.3907" y1="15.2344" x2="15.625" y2="75" gradientUnits="userSpaceOnUse">
<stop offset="0.0001" stop-color="#A4D756"/>
<stop offset="1" stop-color="#00B6E7"/>
</linearGradient>
<clipPath id="clip0_11321_12419">
<rect width="243.75" height="75" fill="white"/>
</clipPath>
</defs>
</svg>
