<svg width="400" height="150" viewBox="0 0 400 150" fill="none" xmlns="http://www.w3.org/2000/svg">
<g clip-path="url(#clip0_11321_12449)">
<path d="M178.714 90.7859C175.789 90.7859 173.151 90.1572 170.8 88.8998C168.449 87.615 166.604 85.8519 165.265 83.6105C163.926 81.3417 163.256 78.8132 163.256 76.0251C163.256 73.2369 163.926 70.7221 165.265 68.4806C166.604 66.2118 168.449 64.4487 170.8 63.1913C173.151 61.9066 175.789 61.2642 178.714 61.2642C181.639 61.2642 184.276 61.9066 186.627 63.1913C188.978 64.4487 190.823 66.1982 192.162 68.4396C193.502 70.6811 194.172 73.2096 194.172 76.0251C194.172 78.8405 193.502 81.369 192.162 83.6105C190.823 85.8519 188.978 87.615 186.627 88.8998C184.276 90.1572 181.639 90.7859 178.714 90.7859ZM178.714 86.1116C180.627 86.1116 182.349 85.6879 183.88 84.8405C185.411 83.9658 186.613 82.7631 187.488 81.2323C188.363 79.6743 188.8 77.9385 188.8 76.0251C188.8 74.1116 188.363 72.3895 187.488 70.8588C186.613 69.3007 185.411 68.098 183.88 67.2506C182.349 66.3759 180.627 65.9385 178.714 65.9385C176.8 65.9385 175.078 66.3759 173.547 67.2506C172.017 68.098 170.814 69.3007 169.939 70.8588C169.065 72.3895 168.627 74.1116 168.627 76.0251C168.627 77.9385 169.065 79.6743 169.939 81.2323C170.814 82.7631 172.017 83.9658 173.547 84.8405C175.078 85.6879 176.8 86.1116 178.714 86.1116ZM229.261 90.3759L223.398 81.9704C223.152 81.9977 222.783 82.0114 222.291 82.0114H215.812V90.3759H210.482V61.6743H222.291C224.778 61.6743 226.938 62.0843 228.769 62.9043C230.628 63.7244 232.049 64.8998 233.034 66.4305C234.018 67.9613 234.51 69.779 234.51 71.8838C234.51 74.0433 233.977 75.9021 232.911 77.4601C231.872 79.0182 230.368 80.18 228.4 80.9453L235.002 90.3759H229.261ZM229.138 71.8838C229.138 70.0524 228.537 68.6446 227.334 67.6606C226.131 66.6765 224.368 66.1845 222.045 66.1845H215.812V77.6241H222.045C224.368 77.6241 226.131 77.1321 227.334 76.1481C228.537 75.1367 229.138 73.7153 229.138 71.8838ZM264.418 90.7859C261.521 90.7859 258.896 90.1572 256.546 88.8998C254.222 87.615 252.391 85.8519 251.051 83.6105C249.739 81.369 249.083 78.8405 249.083 76.0251C249.083 73.2096 249.753 70.6811 251.092 68.4396C252.432 66.1982 254.263 64.4487 256.587 63.1913C258.937 61.9066 261.562 61.2642 264.459 61.2642C266.81 61.2642 268.956 61.6743 270.896 62.4943C272.837 63.3144 274.477 64.5034 275.817 66.0615L272.372 69.3007C270.295 67.0592 267.739 65.9385 264.705 65.9385C262.737 65.9385 260.974 66.3759 259.416 67.2506C257.858 68.098 256.641 69.287 255.767 70.8178C254.892 72.3485 254.454 74.0843 254.454 76.0251C254.454 77.9658 254.892 79.7016 255.767 81.2323C256.641 82.7631 257.858 83.9658 259.416 84.8405C260.974 85.6879 262.737 86.1116 264.705 86.1116C267.739 86.1116 270.295 84.9772 272.372 82.7084L275.817 85.9886C274.477 87.5467 272.824 88.7358 270.855 89.5558C268.915 90.3759 266.769 90.7859 264.418 90.7859ZM304.09 61.2642C306.66 61.2642 308.901 61.7699 310.815 62.7813C312.728 63.7927 314.204 65.2961 315.243 67.2916C316.309 69.2597 316.842 71.6515 316.842 74.467V90.3759H311.512V82.9954H296.587V90.3759H291.339V74.467C291.339 71.6515 291.858 69.2597 292.897 67.2916C293.963 65.2961 295.453 63.7927 297.366 62.7813C299.28 61.7699 301.521 61.2642 304.09 61.2642ZM311.512 78.5262V73.9749C311.512 71.3235 310.856 69.328 309.544 67.9886C308.232 66.6219 306.4 65.9385 304.049 65.9385C301.699 65.9385 299.867 66.6219 298.555 67.9886C297.243 69.328 296.587 71.3235 296.587 73.9749V78.5262H311.512Z" fill="black"/>
<path d="M143 75C143 91.5685 129.568 105 113 105C96.4315 105 83 91.5685 83 75C83 58.4315 96.4315 45 113 45C129.568 45 143 58.4315 143 75Z" fill="#FFD15C"/>
<path d="M135.076 70.4083C133.559 68.2831 131.948 67.169 130.94 66.6279C130.586 65.9775 130.193 65.3369 129.763 64.7073C128.522 62.8929 127.228 61.3196 125.92 60.0312C124.695 58.8261 123.418 57.8319 122.124 57.0759C119.871 55.7601 117.534 55.1182 114.981 55.1134C114.971 55.1134 114.961 55.1134 114.951 55.1134C112.613 55.1134 110.478 55.6454 108.696 56.1662C108.185 56.3155 107.666 56.4773 107.163 56.6342C105.877 57.0346 104.662 57.4131 103.637 57.5818C102.938 57.6969 102.391 57.9603 102.01 58.3648C101.65 58.7467 101.436 59.2573 101.374 59.8825C101.257 61.0514 101.671 62.6177 102.573 64.4121C104.376 68.0013 107.83 71.9526 111.373 74.4791C111.736 74.7384 112.081 75.0245 112.405 75.3329C112.4 75.3343 112.395 75.3353 112.39 75.3362C109.636 75.7296 108.2 78.6902 107.619 80.2898C107.468 80.707 107.88 81.0806 108.301 80.9386C109.97 80.3759 113.335 79.4754 115.304 80.5484C115.672 82.3083 115.517 84.0336 114.853 85.3819C114.445 86.2088 113.865 86.8698 113.128 87.3466C112.333 87.8612 111.373 88.1487 110.273 88.2018C109.082 88.2593 107.731 88.0401 106.26 87.55C104.658 87.0168 102.899 86.1582 101.032 84.9977L100.998 84.9765L100.962 84.9574C100.941 84.9459 100.918 84.9332 100.896 84.92C103.568 81.6994 101.939 76.8357 101.287 75.2322C101.2 75.0185 100.905 75.02 100.787 75.219C99.2604 77.8043 96.1286 77.6123 96.1842 80.6914C96.183 80.6889 96.1817 80.6866 96.1804 80.6844C93.7861 78.7375 92.0088 81.3276 89.0295 80.9386C88.8004 80.9088 88.6176 81.1405 88.7327 81.3406C89.5919 82.837 92.406 87.0931 96.5674 86.9978C96.7326 87.178 96.9237 87.3864 97.0717 87.55L97.5739 88.1042C99.6132 90.3547 101.847 92.1405 104.213 93.4121C106.416 94.5968 108.735 95.3381 111.106 95.6161C111.817 95.6993 112.529 95.7407 113.24 95.7407C117.368 95.7407 121.471 94.3527 124.987 91.7344C126.959 90.2657 128.644 88.4932 129.996 86.4664C131.379 84.3921 132.348 82.1471 132.874 79.7941C133.225 78.2266 133.371 76.6454 133.311 75.0683C134.617 74.68 136.058 75.831 136.764 76.5066C136.936 76.6714 137.22 76.5692 137.212 76.3308C137.175 75.2504 136.866 72.9145 135.076 70.4083ZM123.181 90.0604C119.633 92.5751 115.463 93.6946 111.388 93.2168C109.32 92.9743 107.291 92.3241 105.357 91.2841C103.51 90.2914 101.743 88.939 100.094 87.2567C103.779 89.4944 107.071 90.6262 109.894 90.6262C110.061 90.6262 110.226 90.6226 110.39 90.6145C111.92 90.5405 113.283 90.1236 114.44 89.3746C115.549 88.6575 116.416 87.673 117.02 86.4493C117.557 85.3594 117.855 84.1334 117.907 82.8049C117.956 81.5646 117.789 80.2971 117.41 79.0375C116.615 76.3941 114.969 74.0766 112.776 72.5123C111.151 71.3537 109.522 69.8516 108.064 68.169C106.885 66.808 105.882 65.4067 105.13 64.0728L105.13 64.0711C105.13 64.0711 105.124 64.062 105.114 64.0454C105.107 64.0318 105.099 64.0181 105.091 64.0044C104.967 63.7713 104.638 62.9974 105.673 62.8497C115.444 61.4541 135.326 80.0172 123.181 90.0604Z" fill="black"/>
<path d="M105.672 62.8497C104.637 62.9974 104.966 63.7708 105.091 64.0044C105.098 64.0181 105.106 64.0318 105.114 64.0454C105.124 64.062 105.129 64.0711 105.129 64.0711L105.129 64.0728C105.881 65.4067 106.884 66.808 108.064 68.169C109.522 69.8516 111.151 71.3537 112.775 72.5123C114.969 74.0766 116.615 76.3941 117.41 79.0375C117.788 80.2971 117.956 81.5646 117.907 82.8049C117.855 84.1331 117.556 85.3594 117.019 86.4493C116.416 87.673 115.548 88.6575 114.439 89.3746C113.282 90.1233 111.919 90.5405 110.389 90.6145C110.226 90.6226 110.06 90.6262 109.894 90.6262C107.071 90.6262 103.778 89.4944 100.094 87.2567C101.743 88.939 103.509 90.2914 105.356 91.2841C107.29 92.3241 109.32 92.9743 111.387 93.2168C115.462 93.6943 119.633 92.5748 123.18 90.0604C135.325 80.0172 115.443 61.4541 105.672 62.8497Z" fill="white"/>
<path d="M98.8125 85.0483C98.8125 85.0486 98.8172 85.0495 98.8252 85.0505C98.8164 85.0483 98.8121 85.048 98.8125 85.0483Z" fill="black"/>
<path d="M99.209 84.8725C99.2121 84.8677 99.2138 84.865 99.2138 84.865C99.2134 84.8646 99.2119 84.8672 99.209 84.8725Z" fill="black"/>
<path d="M115.852 62.1712C115.513 61.6963 114.835 60.407 116.938 60.407C119.042 60.407 122.256 62.789 122.91 63.6701C122.706 64.2072 121.349 64.3272 120.671 64.2752C119.992 64.2231 118.838 64.1116 117.956 63.6701C117.074 63.2288 116.192 62.6463 115.852 62.1712Z" fill="white"/>
<path d="M143 75C143 91.5685 129.568 105 113 105C96.4315 105 83 91.5685 83 75C83 58.4315 96.4315 45 113 45C129.568 45 143 58.4315 143 75Z" fill="#FFD15C"/>
<path d="M135.076 70.4083C133.559 68.2831 131.948 67.169 130.94 66.6279C130.586 65.9775 130.193 65.3369 129.763 64.7073C128.522 62.8929 127.228 61.3196 125.92 60.0312C124.695 58.8261 123.418 57.8319 122.124 57.0759C119.871 55.7601 117.534 55.1182 114.981 55.1134C114.971 55.1134 114.961 55.1134 114.951 55.1134C112.613 55.1134 110.478 55.6454 108.696 56.1662C108.185 56.3155 107.666 56.4773 107.163 56.6342C105.877 57.0346 104.662 57.4131 103.637 57.5818C102.938 57.6969 102.391 57.9603 102.01 58.3648C101.65 58.7467 101.436 59.2573 101.374 59.8825C101.257 61.0514 101.671 62.6177 102.573 64.4121C104.376 68.0013 107.83 71.9526 111.373 74.4791C111.736 74.7384 112.081 75.0245 112.405 75.3329C112.4 75.3343 112.395 75.3353 112.39 75.3362C109.636 75.7296 108.2 78.6902 107.619 80.2898C107.468 80.707 107.88 81.0806 108.301 80.9386C109.97 80.3759 113.335 79.4754 115.304 80.5484C115.672 82.3083 115.517 84.0336 114.853 85.3819C114.445 86.2088 113.865 86.8698 113.128 87.3466C112.333 87.8612 111.373 88.1487 110.273 88.2018C109.082 88.2593 107.731 88.0401 106.26 87.55C104.658 87.0168 102.899 86.1582 101.032 84.9977L100.998 84.9765L100.962 84.9574C100.941 84.9459 100.918 84.9332 100.896 84.92C103.568 81.6994 101.939 76.8357 101.287 75.2322C101.2 75.0185 100.905 75.02 100.787 75.219C99.2604 77.8043 96.1286 77.6123 96.1842 80.6914C96.183 80.6889 96.1817 80.6866 96.1804 80.6844C93.7861 78.7375 92.0088 81.3276 89.0295 80.9386C88.8004 80.9088 88.6176 81.1405 88.7327 81.3406C89.5919 82.837 92.406 87.0931 96.5674 86.9978C96.7326 87.178 96.9237 87.3864 97.0717 87.55L97.5739 88.1042C99.6132 90.3547 101.847 92.1405 104.213 93.4121C106.416 94.5968 108.735 95.3381 111.106 95.6161C111.817 95.6993 112.529 95.7407 113.24 95.7407C117.368 95.7407 121.471 94.3527 124.987 91.7344C126.959 90.2657 128.644 88.4932 129.996 86.4664C131.379 84.3921 132.348 82.1471 132.874 79.7941C133.225 78.2266 133.371 76.6454 133.311 75.0683C134.617 74.68 136.058 75.831 136.764 76.5066C136.936 76.6714 137.22 76.5692 137.212 76.3308C137.175 75.2504 136.866 72.9145 135.076 70.4083ZM123.181 90.0604C119.633 92.5751 115.463 93.6946 111.388 93.2168C109.32 92.9743 107.291 92.3241 105.357 91.2841C103.51 90.2914 101.743 88.939 100.094 87.2567C103.779 89.4944 107.071 90.6262 109.894 90.6262C110.061 90.6262 110.226 90.6226 110.39 90.6145C111.92 90.5405 113.283 90.1236 114.44 89.3746C115.549 88.6575 116.416 87.673 117.02 86.4493C117.557 85.3594 117.855 84.1334 117.907 82.8049C117.956 81.5646 117.789 80.2971 117.41 79.0375C116.615 76.3941 114.969 74.0766 112.776 72.5123C111.151 71.3537 109.522 69.8516 108.064 68.169C106.885 66.808 105.882 65.4067 105.13 64.0728L105.13 64.0711C105.13 64.0711 105.124 64.062 105.114 64.0454C105.107 64.0318 105.099 64.0181 105.091 64.0044C104.967 63.7713 104.638 62.9974 105.673 62.8497C115.444 61.4541 135.326 80.0172 123.181 90.0604Z" fill="black"/>
<path d="M105.672 62.8497C104.637 62.9974 104.966 63.7708 105.091 64.0044C105.098 64.0181 105.106 64.0318 105.114 64.0454C105.124 64.062 105.129 64.0711 105.129 64.0711L105.129 64.0728C105.881 65.4067 106.884 66.808 108.064 68.169C109.522 69.8516 111.151 71.3537 112.775 72.5123C114.969 74.0766 116.615 76.3941 117.41 79.0375C117.788 80.2971 117.956 81.5646 117.907 82.8049C117.855 84.1331 117.556 85.3594 117.019 86.4493C116.416 87.673 115.548 88.6575 114.439 89.3746C113.282 90.1233 111.919 90.5405 110.389 90.6145C110.226 90.6226 110.06 90.6262 109.894 90.6262C107.071 90.6262 103.778 89.4944 100.094 87.2567C101.743 88.939 103.509 90.2914 105.356 91.2841C107.29 92.3241 109.32 92.9743 111.387 93.2168C115.462 93.6943 119.633 92.5748 123.18 90.0604C135.325 80.0172 115.443 61.4541 105.672 62.8497Z" fill="white"/>
<path d="M98.8125 85.0483C98.8125 85.0486 98.8172 85.0495 98.8252 85.0505C98.8164 85.0483 98.8121 85.048 98.8125 85.0483Z" fill="black"/>
<path d="M99.209 84.8725C99.2121 84.8677 99.2138 84.865 99.2138 84.865C99.2134 84.8646 99.2119 84.8672 99.209 84.8725Z" fill="black"/>
<path d="M115.852 62.1712C115.513 61.6963 114.835 60.407 116.938 60.407C119.042 60.407 122.256 62.789 122.91 63.6701C122.706 64.2072 121.349 64.3272 120.671 64.2752C119.992 64.2231 118.838 64.1116 117.956 63.6701C117.074 63.2288 116.192 62.6463 115.852 62.1712Z" fill="white"/>
</g>
<defs>
<clipPath id="clip0_11321_12449">
<rect width="233.85" height="60" fill="white" transform="translate(83 45)"/>
</clipPath>
</defs>
</svg>
