<svg width="234" height="60" viewBox="0 0 234 60" fill="none" xmlns="http://www.w3.org/2000/svg">
<g clip-path="url(#clip0_11321_12450)">
<path d="M95.7137 45.7859C92.7889 45.7859 90.1511 45.1572 87.8003 43.8998C85.4495 42.615 83.6044 40.8519 82.265 38.6105C80.9256 36.3417 80.2559 33.8132 80.2559 31.0251C80.2559 28.2369 80.9256 25.7221 82.265 23.4806C83.6044 21.2118 85.4495 19.4487 87.8003 18.1913C90.1511 16.9066 92.7889 16.2642 95.7137 16.2642C98.6385 16.2642 101.276 16.9066 103.627 18.1913C105.978 19.4487 107.823 21.1982 109.162 23.4396C110.502 25.6811 111.172 28.2096 111.172 31.0251C111.172 33.8405 110.502 36.369 109.162 38.6105C107.823 40.8519 105.978 42.615 103.627 43.8998C101.276 45.1572 98.6385 45.7859 95.7137 45.7859ZM95.7137 41.1116C97.6272 41.1116 99.3492 40.6879 100.88 39.8405C102.411 38.9658 103.613 37.7631 104.488 36.2323C105.363 34.6743 105.8 32.9385 105.8 31.0251C105.8 29.1116 105.363 27.3895 104.488 25.8588C103.613 24.3007 102.411 23.098 100.88 22.2506C99.3492 21.3759 97.6272 20.9385 95.7137 20.9385C93.8003 20.9385 92.0782 21.3759 90.5474 22.2506C89.0167 23.098 87.8139 24.3007 86.9392 25.8588C86.0645 27.3895 85.6272 29.1116 85.6272 31.0251C85.6272 32.9385 86.0645 34.6743 86.9392 36.2323C87.8139 37.7631 89.0167 38.9658 90.5474 39.8405C92.0782 40.6879 93.8003 41.1116 95.7137 41.1116ZM146.261 45.3759L140.398 36.9704C140.152 36.9977 139.783 37.0114 139.291 37.0114H132.812V45.3759H127.482V16.6743H139.291C141.778 16.6743 143.938 17.0843 145.769 17.9043C147.628 18.7244 149.049 19.8998 150.034 21.4305C151.018 22.9613 151.51 24.779 151.51 26.8838C151.51 29.0433 150.977 30.9021 149.911 32.4601C148.872 34.0182 147.368 35.18 145.4 35.9453L152.002 45.3759H146.261ZM146.138 26.8838C146.138 25.0524 145.537 23.6446 144.334 22.6606C143.131 21.6765 141.368 21.1845 139.045 21.1845H132.812V32.6241H139.045C141.368 32.6241 143.131 32.1321 144.334 31.1481C145.537 30.1367 146.138 28.7153 146.138 26.8838ZM181.418 45.7859C178.521 45.7859 175.896 45.1572 173.546 43.8998C171.222 42.615 169.391 40.8519 168.051 38.6105C166.739 36.369 166.083 33.8405 166.083 31.0251C166.083 28.2096 166.753 25.6811 168.092 23.4396C169.432 21.1982 171.263 19.4487 173.587 18.1913C175.937 16.9066 178.562 16.2642 181.459 16.2642C183.81 16.2642 185.956 16.6743 187.896 17.4943C189.837 18.3144 191.477 19.5034 192.817 21.0615L189.372 24.3007C187.295 22.0592 184.739 20.9385 181.705 20.9385C179.737 20.9385 177.974 21.3759 176.416 22.2506C174.858 23.098 173.641 24.287 172.767 25.8178C171.892 27.3485 171.454 29.0843 171.454 31.0251C171.454 32.9658 171.892 34.7016 172.767 36.2323C173.641 37.7631 174.858 38.9658 176.416 39.8405C177.974 40.6879 179.737 41.1116 181.705 41.1116C184.739 41.1116 187.295 39.9772 189.372 37.7084L192.817 40.9886C191.477 42.5467 189.824 43.7358 187.855 44.5558C185.915 45.3759 183.769 45.7859 181.418 45.7859ZM221.09 16.2642C223.66 16.2642 225.901 16.7699 227.815 17.7813C229.728 18.7927 231.204 20.2961 232.243 22.2916C233.309 24.2597 233.842 26.6515 233.842 29.467V45.3759H228.512V37.9954H213.587V45.3759H208.339V29.467C208.339 26.6515 208.858 24.2597 209.897 22.2916C210.963 20.2961 212.453 18.7927 214.366 17.7813C216.28 16.7699 218.521 16.2642 221.09 16.2642ZM228.512 33.5262V28.9749C228.512 26.3235 227.856 24.328 226.544 22.9886C225.232 21.6219 223.4 20.9385 221.049 20.9385C218.699 20.9385 216.867 21.6219 215.555 22.9886C214.243 24.328 213.587 26.3235 213.587 28.9749V33.5262H228.512Z" fill="black"/>
<path d="M60 30C60 46.5685 46.5685 60 30 60C13.4315 60 0 46.5685 0 30C0 13.4315 13.4315 0 30 0C46.5685 0 60 13.4315 60 30Z" fill="#FFD15C"/>
<path d="M52.0762 25.4083C50.5586 23.2831 48.9478 22.169 47.9396 21.6279C47.5856 20.9775 47.1935 20.3369 46.7628 19.7073C45.5217 17.8929 44.2283 16.3196 42.9196 15.0312C41.6955 13.8261 40.4184 12.8319 39.1238 12.0759C36.8709 10.7601 34.5344 10.1182 31.9806 10.1134C31.9707 10.1134 31.9611 10.1134 31.9513 10.1134C29.6132 10.1134 27.4778 10.6454 25.6964 11.1662C25.1851 11.3155 24.6659 11.4773 24.1626 11.6342C22.8767 12.0346 21.6618 12.4131 20.6367 12.5818C19.9383 12.6969 19.3908 12.9603 19.01 13.3648C18.6504 13.7467 18.4361 14.2573 18.3735 14.8825C18.2567 16.0514 18.6714 17.6177 19.5729 19.4121C21.3761 23.0013 24.8302 26.9526 28.3726 29.4791C28.7362 29.7384 29.081 30.0245 29.4051 30.3329C29.4003 30.3343 29.3955 30.3353 29.3904 30.3362C26.6358 30.7296 25.2004 33.6902 24.6193 35.2898C24.4677 35.707 24.8801 36.0806 25.3011 35.9386C26.9703 35.3759 30.3346 34.4754 32.3041 35.5484C32.672 37.3083 32.5169 39.0336 31.8528 40.3819C31.4455 41.2088 30.8652 41.8698 30.1279 42.3466C29.3329 42.8612 28.3726 43.1487 27.2732 43.2018C26.0818 43.2593 24.7313 43.0401 23.2595 42.55C21.658 42.0168 19.8992 41.1582 18.0323 39.9977L17.9977 39.9765L17.9617 39.9574C17.9406 39.9459 17.9183 39.9332 17.896 39.92C20.5684 36.6994 18.939 31.8357 18.2869 30.2322C18.1998 30.0185 17.9049 30.02 17.7873 30.219C16.2604 32.8043 13.1286 32.6123 13.1842 35.6914C13.183 35.6889 13.1817 35.6866 13.1804 35.6844C10.7861 33.7375 9.00881 36.3276 6.02946 35.9386C5.80035 35.9088 5.61765 36.1405 5.73267 36.3406C6.5919 37.837 9.40601 42.0931 13.5674 41.9978C13.7326 42.178 13.9237 42.3864 14.0717 42.55L14.5739 43.1042C16.6132 45.3547 18.8467 47.1405 21.2125 48.4121C23.4161 49.5968 25.7355 50.3381 28.1064 50.6161C28.8165 50.6993 29.5286 50.7407 30.2401 50.7407C34.3683 50.7407 38.4715 49.3527 41.9866 46.7344C43.9585 45.2657 45.644 43.4932 46.9957 41.4664C48.3793 39.3921 49.3479 37.1471 49.8744 34.7941C50.2252 33.2266 50.3708 31.6454 50.3113 30.0683C51.6167 29.68 53.058 30.831 53.7636 31.5066C53.9358 31.6714 54.2198 31.5692 54.2119 31.3308C54.1754 30.2504 53.8655 27.9145 52.0762 25.4083ZM40.181 45.0604C36.6335 47.5751 32.4629 48.6946 28.3879 48.2168C26.3202 47.9743 24.291 47.3241 22.3565 46.2841C20.5096 45.2914 18.7431 43.939 17.0943 42.2567C20.779 44.4944 24.0714 45.6262 26.8941 45.6262C27.061 45.6262 27.2262 45.6226 27.3895 45.6145C28.9201 45.5405 30.2828 45.1236 31.44 44.3746C32.5487 43.6575 33.4165 42.673 34.0196 41.4493C34.5566 40.3594 34.8554 39.1334 34.9074 37.8049C34.9561 36.5646 34.7889 35.2971 34.4102 34.0375C33.6148 31.3941 31.9688 29.0766 29.7756 27.5123C28.1512 26.3537 26.5216 24.8516 25.0642 23.169C23.8849 21.808 22.882 20.4067 22.1296 19.0728L22.1299 19.0711C22.1299 19.0711 22.1239 19.062 22.1143 19.0454C22.1067 19.0318 22.099 19.0181 22.0915 19.0044C21.9666 18.7713 21.6383 17.9974 22.6726 17.8497C32.4439 16.4541 52.3256 35.0172 40.181 45.0604Z" fill="black"/>
<path d="M22.6721 17.8497C21.6375 17.9974 21.9661 18.7708 22.091 19.0044C22.0985 19.0181 22.1061 19.0318 22.1138 19.0454C22.1236 19.062 22.1294 19.0711 22.1294 19.0711L22.1291 19.0728C22.8815 20.4067 23.8844 21.808 25.0636 23.169C26.5215 24.8516 28.1507 26.3537 29.7751 27.5123C31.9686 29.0766 33.6145 31.3941 34.4096 34.0375C34.7884 35.2971 34.9556 36.5646 34.9069 37.8049C34.8548 39.1331 34.5561 40.3594 34.0191 41.4493C33.4159 42.673 32.5482 43.6575 31.4395 44.3746C30.2821 45.1233 28.9194 45.5405 27.389 45.6145C27.2257 45.6226 27.06 45.6262 26.8936 45.6262C24.0708 45.6262 20.7785 44.4944 17.0938 42.2567C18.7426 43.939 20.5091 45.2914 22.356 46.2841C24.2905 47.3241 26.3197 47.9743 28.3874 48.2168C32.4624 48.6943 36.633 47.5748 40.1805 45.0604C52.3251 35.0172 32.4434 16.4541 22.6721 17.8497Z" fill="white"/>
<path d="M15.8125 40.0483C15.8125 40.0486 15.8172 40.0495 15.8252 40.0505C15.8164 40.0483 15.8121 40.048 15.8125 40.0483Z" fill="black"/>
<path d="M16.209 39.8725C16.2121 39.8677 16.2138 39.865 16.2138 39.865C16.2134 39.8646 16.2119 39.8672 16.209 39.8725Z" fill="black"/>
<path d="M32.8524 17.1712C32.5133 16.6963 31.8346 15.407 33.9382 15.407C36.0421 15.407 39.2562 17.789 39.91 18.6701C39.7062 19.2072 38.349 19.3272 37.6707 19.2752C36.992 19.2231 35.8384 19.1116 34.9563 18.6701C34.0738 18.2288 33.1917 17.6463 32.8524 17.1712Z" fill="white"/>
<path d="M60 30C60 46.5685 46.5685 60 30 60C13.4315 60 0 46.5685 0 30C0 13.4315 13.4315 0 30 0C46.5685 0 60 13.4315 60 30Z" fill="#FFD15C"/>
<path d="M52.0762 25.4083C50.5586 23.2831 48.9478 22.169 47.9396 21.6279C47.5856 20.9775 47.1935 20.3369 46.7628 19.7073C45.5217 17.8929 44.2283 16.3196 42.9196 15.0312C41.6955 13.8261 40.4184 12.8319 39.1238 12.0759C36.8709 10.7601 34.5344 10.1182 31.9806 10.1134C31.9707 10.1134 31.9611 10.1134 31.9513 10.1134C29.6132 10.1134 27.4778 10.6454 25.6964 11.1662C25.1851 11.3155 24.6659 11.4773 24.1626 11.6342C22.8767 12.0346 21.6618 12.4131 20.6367 12.5818C19.9383 12.6969 19.3908 12.9603 19.01 13.3648C18.6504 13.7467 18.4361 14.2573 18.3735 14.8825C18.2567 16.0514 18.6714 17.6177 19.5729 19.4121C21.3761 23.0013 24.8302 26.9526 28.3726 29.4791C28.7362 29.7384 29.081 30.0245 29.4051 30.3329C29.4003 30.3343 29.3955 30.3353 29.3904 30.3362C26.6358 30.7296 25.2004 33.6902 24.6193 35.2898C24.4677 35.707 24.8801 36.0806 25.3011 35.9386C26.9703 35.3759 30.3346 34.4754 32.3041 35.5484C32.672 37.3083 32.5169 39.0336 31.8528 40.3819C31.4455 41.2088 30.8652 41.8698 30.1279 42.3466C29.3329 42.8612 28.3726 43.1487 27.2732 43.2018C26.0818 43.2593 24.7313 43.0401 23.2595 42.55C21.658 42.0168 19.8992 41.1582 18.0323 39.9977L17.9977 39.9765L17.9617 39.9574C17.9406 39.9459 17.9183 39.9332 17.896 39.92C20.5684 36.6994 18.939 31.8357 18.2869 30.2322C18.1998 30.0185 17.9049 30.02 17.7873 30.219C16.2604 32.8043 13.1286 32.6123 13.1842 35.6914C13.183 35.6889 13.1817 35.6866 13.1804 35.6844C10.7861 33.7375 9.00881 36.3276 6.02946 35.9386C5.80035 35.9088 5.61765 36.1405 5.73267 36.3406C6.5919 37.837 9.40601 42.0931 13.5674 41.9978C13.7326 42.178 13.9237 42.3864 14.0717 42.55L14.5739 43.1042C16.6132 45.3547 18.8467 47.1405 21.2125 48.4121C23.4161 49.5968 25.7355 50.3381 28.1064 50.6161C28.8165 50.6993 29.5286 50.7407 30.2401 50.7407C34.3683 50.7407 38.4715 49.3527 41.9866 46.7344C43.9585 45.2657 45.644 43.4932 46.9957 41.4664C48.3793 39.3921 49.3479 37.1471 49.8744 34.7941C50.2252 33.2266 50.3708 31.6454 50.3113 30.0683C51.6167 29.68 53.058 30.831 53.7636 31.5066C53.9358 31.6714 54.2198 31.5692 54.2119 31.3308C54.1754 30.2504 53.8655 27.9145 52.0762 25.4083ZM40.181 45.0604C36.6335 47.5751 32.4629 48.6946 28.3879 48.2168C26.3202 47.9743 24.291 47.3241 22.3565 46.2841C20.5096 45.2914 18.7431 43.939 17.0943 42.2567C20.779 44.4944 24.0714 45.6262 26.8941 45.6262C27.061 45.6262 27.2262 45.6226 27.3895 45.6145C28.9201 45.5405 30.2828 45.1236 31.44 44.3746C32.5487 43.6575 33.4165 42.673 34.0196 41.4493C34.5566 40.3594 34.8554 39.1334 34.9074 37.8049C34.9561 36.5646 34.7889 35.2971 34.4102 34.0375C33.6148 31.3941 31.9688 29.0766 29.7756 27.5123C28.1512 26.3537 26.5216 24.8516 25.0642 23.169C23.8849 21.808 22.882 20.4067 22.1296 19.0728L22.1299 19.0711C22.1299 19.0711 22.1239 19.062 22.1143 19.0454C22.1067 19.0318 22.099 19.0181 22.0915 19.0044C21.9666 18.7713 21.6383 17.9974 22.6726 17.8497C32.4439 16.4541 52.3256 35.0172 40.181 45.0604Z" fill="black"/>
<path d="M22.6721 17.8497C21.6375 17.9974 21.9661 18.7708 22.091 19.0044C22.0985 19.0181 22.1061 19.0318 22.1138 19.0454C22.1236 19.062 22.1294 19.0711 22.1294 19.0711L22.1291 19.0728C22.8815 20.4067 23.8844 21.808 25.0636 23.169C26.5215 24.8516 28.1507 26.3537 29.7751 27.5123C31.9686 29.0766 33.6145 31.3941 34.4096 34.0375C34.7884 35.2971 34.9556 36.5646 34.9069 37.8049C34.8548 39.1331 34.5561 40.3594 34.0191 41.4493C33.4159 42.673 32.5482 43.6575 31.4395 44.3746C30.2821 45.1233 28.9194 45.5405 27.389 45.6145C27.2257 45.6226 27.06 45.6262 26.8936 45.6262C24.0708 45.6262 20.7785 44.4944 17.0938 42.2567C18.7426 43.939 20.5091 45.2914 22.356 46.2841C24.2905 47.3241 26.3197 47.9743 28.3874 48.2168C32.4624 48.6943 36.633 47.5748 40.1805 45.0604C52.3251 35.0172 32.4434 16.4541 22.6721 17.8497Z" fill="white"/>
<path d="M15.8125 40.0483C15.8125 40.0486 15.8172 40.0495 15.8252 40.0505C15.8164 40.0483 15.8121 40.048 15.8125 40.0483Z" fill="black"/>
<path d="M16.209 39.8725C16.2121 39.8677 16.2138 39.865 16.2138 39.865C16.2134 39.8646 16.2119 39.8672 16.209 39.8725Z" fill="black"/>
<path d="M32.8524 17.1712C32.5133 16.6963 31.8346 15.407 33.9382 15.407C36.0421 15.407 39.2562 17.789 39.91 18.6701C39.7062 19.2072 38.349 19.3272 37.6707 19.2752C36.992 19.2231 35.8384 19.1116 34.9563 18.6701C34.0738 18.2288 33.1917 17.6463 32.8524 17.1712Z" fill="white"/>
</g>
<defs>
<clipPath id="clip0_11321_12450">
<rect width="233.85" height="60" fill="white"/>
</clipPath>
</defs>
</svg>
