<svg width="540" height="540" viewBox="0 0 540 540" fill="none" xmlns="http://www.w3.org/2000/svg">
<path d="M425.879 417.835C425.879 434.147 419.808 448.449 410.061 459.418C409.946 459.547 409.866 459.705 409.831 459.875C409.684 460.576 410.312 461.193 411.007 461.022C439.112 454.089 461.837 430.056 461.837 398.495V234.883C461.837 186.518 434.851 141.827 391.046 117.644L214.168 20L179.13 39.8467L355.089 136.983C398.894 161.166 425.879 205.857 425.879 254.222V417.835Z" fill="url(#paint0_linear_1_21)"/>
<path d="M425.879 417.835C425.879 434.147 419.808 448.449 410.061 459.418C409.946 459.547 409.866 459.705 409.831 459.875C409.684 460.576 410.312 461.193 411.007 461.022C439.112 454.089 461.837 430.056 461.837 398.495V234.883C461.837 186.518 434.851 141.827 391.046 117.644L214.168 20L179.13 39.8467L355.089 136.983C398.894 161.166 425.879 205.857 425.879 254.222V417.835Z" fill="url(#paint1_linear_1_21)"/>
<path d="M425.879 417.835C425.879 434.147 419.808 448.449 410.061 459.418C409.946 459.547 409.866 459.705 409.831 459.875C409.684 460.576 410.312 461.193 411.007 461.022C439.112 454.089 461.837 430.056 461.837 398.495V234.883C461.837 186.518 434.851 141.827 391.046 117.644L214.168 20L179.13 39.8467L355.089 136.983C398.894 161.166 425.879 205.857 425.879 254.222V417.835Z" fill="url(#paint2_radial_1_21)" fill-opacity="0.2"/>
<path d="M425.879 417.835C425.879 434.147 419.808 448.449 410.061 459.418C409.946 459.547 409.866 459.705 409.831 459.875C409.684 460.576 410.312 461.193 411.007 461.022C439.112 454.089 461.837 430.056 461.837 398.495V234.883C461.837 186.518 434.851 141.827 391.046 117.644L214.168 20L179.13 39.8467L355.089 136.983C398.894 161.166 425.879 205.857 425.879 254.222V417.835Z" fill="url(#paint3_radial_1_21)" fill-opacity="0.1"/>
<path d="M425.879 417.835C425.879 434.147 419.808 448.449 410.061 459.418C409.946 459.547 409.866 459.705 409.831 459.875C409.684 460.576 410.312 461.193 411.007 461.022C439.112 454.089 461.837 430.056 461.837 398.495V234.883C461.837 186.518 434.851 141.827 391.046 117.644L214.168 20L179.13 39.8467L355.089 136.983C398.894 161.166 425.879 205.857 425.879 254.222V417.835Z" fill="url(#paint4_linear_1_21)" fill-opacity="0.2"/>
<path d="M376.438 445.769V282.157C376.438 233.792 349.453 189.101 305.647 164.918L129.689 67.7814L164.727 47.9347L341.604 145.579C385.41 169.761 412.395 214.453 412.395 262.818V426.43C412.395 457.99 389.671 482.024 361.566 488.957C360.87 489.128 360.243 488.51 360.39 487.809C360.426 487.64 360.505 487.482 360.62 487.353C370.367 476.384 376.438 462.082 376.438 445.769Z" fill="url(#paint5_linear_1_21)"/>
<path d="M376.438 445.769V282.157C376.438 233.792 349.453 189.101 305.647 164.918L129.689 67.7814L164.727 47.9347L341.604 145.579C385.41 169.761 412.395 214.453 412.395 262.818V426.43C412.395 457.99 389.671 482.024 361.566 488.957C360.87 489.128 360.243 488.51 360.39 487.809C360.426 487.64 360.505 487.482 360.62 487.353C370.367 476.384 376.438 462.082 376.438 445.769Z" fill="url(#paint6_linear_1_21)"/>
<path d="M376.438 445.769V282.157C376.438 233.792 349.453 189.101 305.647 164.918L129.689 67.7814L164.727 47.9347L341.604 145.579C385.41 169.761 412.395 214.453 412.395 262.818V426.43C412.395 457.99 389.671 482.024 361.566 488.957C360.87 489.128 360.243 488.51 360.39 487.809C360.426 487.64 360.505 487.482 360.62 487.353C370.367 476.384 376.438 462.082 376.438 445.769Z" fill="url(#paint7_radial_1_21)" fill-opacity="0.2"/>
<path d="M376.438 445.769V282.157C376.438 233.792 349.453 189.101 305.647 164.918L129.689 67.7814L164.727 47.9347L341.604 145.579C385.41 169.761 412.395 214.453 412.395 262.818V426.43C412.395 457.99 389.671 482.024 361.566 488.957C360.87 489.128 360.243 488.51 360.39 487.809C360.426 487.64 360.505 487.482 360.62 487.353C370.367 476.384 376.438 462.082 376.438 445.769Z" fill="url(#paint8_radial_1_21)" fill-opacity="0.1"/>
<path d="M376.438 445.769V282.157C376.438 233.792 349.453 189.101 305.647 164.918L129.689 67.7814L164.727 47.9347L341.604 145.579C385.41 169.761 412.395 214.453 412.395 262.818V426.43C412.395 457.99 389.671 482.024 361.566 488.957C360.87 489.128 360.243 488.51 360.39 487.809C360.426 487.64 360.505 487.482 360.62 487.353C370.367 476.384 376.438 462.082 376.438 445.769Z" fill="url(#paint9_linear_1_21)" fill-opacity="0.2"/>
<path fill-rule="evenodd" clip-rule="evenodd" d="M78 97.049L113.495 76.9438L290.372 174.588C334.178 198.77 361.163 243.461 361.163 291.827V456.246L361.159 456.243C360.556 505.398 304.737 535.945 260.034 511.267L99.7244 422.77L78 411.085V97.049ZM325.206 311.677V406.659L206.098 340.906V167.765L254.415 194.438C298.221 218.62 325.206 263.311 325.206 311.677ZM161.151 142.952L179.13 152.877V355.784L181.017 356.797L325.206 436.396V454.771L161.383 364.334L161.151 364.465V142.952ZM131.936 126.824V380.073L132.781 380.535L131.936 381.014L324.985 487.585C323.371 496.085 313.23 500.934 304.98 496.38L113.957 390.927V116.899L131.936 126.824Z" fill="url(#paint10_linear_1_21)"/>
<path fill-rule="evenodd" clip-rule="evenodd" d="M78 97.049L113.495 76.9438L290.372 174.588C334.178 198.77 361.163 243.461 361.163 291.827V456.246L361.159 456.243C360.556 505.398 304.737 535.945 260.034 511.267L99.7244 422.77L78 411.085V97.049ZM325.206 311.677V406.659L206.098 340.906V167.765L254.415 194.438C298.221 218.62 325.206 263.311 325.206 311.677ZM161.151 142.952L179.13 152.877V355.784L181.017 356.797L325.206 436.396V454.771L161.383 364.334L161.151 364.465V142.952ZM131.936 126.824V380.073L132.781 380.535L131.936 381.014L324.985 487.585C323.371 496.085 313.23 500.934 304.98 496.38L113.957 390.927V116.899L131.936 126.824Z" fill="url(#paint11_linear_1_21)"/>
<path fill-rule="evenodd" clip-rule="evenodd" d="M78 97.049L113.495 76.9438L290.372 174.588C334.178 198.77 361.163 243.461 361.163 291.827V456.246L361.159 456.243C360.556 505.398 304.737 535.945 260.034 511.267L99.7244 422.77L78 411.085V97.049ZM325.206 311.677V406.659L206.098 340.906V167.765L254.415 194.438C298.221 218.62 325.206 263.311 325.206 311.677ZM161.151 142.952L179.13 152.877V355.784L181.017 356.797L325.206 436.396V454.771L161.383 364.334L161.151 364.465V142.952ZM131.936 126.824V380.073L132.781 380.535L131.936 381.014L324.985 487.585C323.371 496.085 313.23 500.934 304.98 496.38L113.957 390.927V116.899L131.936 126.824Z" fill="url(#paint12_radial_1_21)" fill-opacity="0.2"/>
<path fill-rule="evenodd" clip-rule="evenodd" d="M78 97.049L113.495 76.9438L290.372 174.588C334.178 198.77 361.163 243.461 361.163 291.827V456.246L361.159 456.243C360.556 505.398 304.737 535.945 260.034 511.267L99.7244 422.77L78 411.085V97.049ZM325.206 311.677V406.659L206.098 340.906V167.765L254.415 194.438C298.221 218.62 325.206 263.311 325.206 311.677ZM161.151 142.952L179.13 152.877V355.784L181.017 356.797L325.206 436.396V454.771L161.383 364.334L161.151 364.465V142.952ZM131.936 126.824V380.073L132.781 380.535L131.936 381.014L324.985 487.585C323.371 496.085 313.23 500.934 304.98 496.38L113.957 390.927V116.899L131.936 126.824Z" fill="url(#paint13_radial_1_21)" fill-opacity="0.1"/>
<path fill-rule="evenodd" clip-rule="evenodd" d="M78 97.049L113.495 76.9438L290.372 174.588C334.178 198.77 361.163 243.461 361.163 291.827V456.246L361.159 456.243C360.556 505.398 304.737 535.945 260.034 511.267L99.7244 422.77L78 411.085V97.049ZM325.206 311.677V406.659L206.098 340.906V167.765L254.415 194.438C298.221 218.62 325.206 263.311 325.206 311.677ZM161.151 142.952L179.13 152.877V355.784L181.017 356.797L325.206 436.396V454.771L161.383 364.334L161.151 364.465V142.952ZM131.936 126.824V380.073L132.781 380.535L131.936 381.014L324.985 487.585C323.371 496.085 313.23 500.934 304.98 496.38L113.957 390.927V116.899L131.936 126.824Z" fill="url(#paint14_linear_1_21)" fill-opacity="0.2"/>
<defs>
<linearGradient id="paint0_linear_1_21" x1="71.6087" y1="270" x2="457.561" y2="235.534" gradientUnits="userSpaceOnUse">
<stop stop-color="#FF3873"/>
<stop offset="0.473958" stop-color="#711EFF"/>
<stop offset="1" stop-color="#3FE5FF"/>
</linearGradient>
<linearGradient id="paint1_linear_1_21" x1="101.79" y1="43.0111" x2="371.487" y2="271.88" gradientUnits="userSpaceOnUse">
<stop stop-color="#F6F063"/>
<stop offset="1" stop-color="#E07774" stop-opacity="0"/>
</linearGradient>
<radialGradient id="paint2_radial_1_21" cx="0" cy="0" r="1" gradientUnits="userSpaceOnUse" gradientTransform="translate(88.1197 195.763) rotate(65.6073) scale(111.985 96.031)">
<stop offset="0.925861" stop-color="white"/>
<stop offset="1" stop-color="white" stop-opacity="0"/>
</radialGradient>
<radialGradient id="paint3_radial_1_21" cx="0" cy="0" r="1" gradientUnits="userSpaceOnUse" gradientTransform="translate(143.867 149.394) rotate(59.0298) scale(71.0713 97.0176)">
<stop offset="0.0864251" stop-color="white"/>
<stop offset="0.94115" stop-color="white" stop-opacity="0"/>
</radialGradient>
<linearGradient id="paint4_linear_1_21" x1="121.941" y1="158.876" x2="321.958" y2="229.412" gradientUnits="userSpaceOnUse">
<stop stop-color="white"/>
<stop offset="1" stop-opacity="0"/>
</linearGradient>
<linearGradient id="paint5_linear_1_21" x1="71.6087" y1="270" x2="457.562" y2="235.534" gradientUnits="userSpaceOnUse">
<stop stop-color="#FF3873"/>
<stop offset="0.473958" stop-color="#711EFF"/>
<stop offset="1" stop-color="#3FE5FF"/>
</linearGradient>
<linearGradient id="paint6_linear_1_21" x1="101.79" y1="43.0111" x2="371.487" y2="271.88" gradientUnits="userSpaceOnUse">
<stop stop-color="#F6F063"/>
<stop offset="1" stop-color="#E07774" stop-opacity="0"/>
</linearGradient>
<radialGradient id="paint7_radial_1_21" cx="0" cy="0" r="1" gradientUnits="userSpaceOnUse" gradientTransform="translate(88.1197 195.763) rotate(65.6073) scale(111.985 96.031)">
<stop offset="0.925861" stop-color="white"/>
<stop offset="1" stop-color="white" stop-opacity="0"/>
</radialGradient>
<radialGradient id="paint8_radial_1_21" cx="0" cy="0" r="1" gradientUnits="userSpaceOnUse" gradientTransform="translate(143.867 149.394) rotate(59.0298) scale(71.0713 97.0176)">
<stop offset="0.0864251" stop-color="white"/>
<stop offset="0.94115" stop-color="white" stop-opacity="0"/>
</radialGradient>
<linearGradient id="paint9_linear_1_21" x1="121.941" y1="158.876" x2="321.958" y2="229.412" gradientUnits="userSpaceOnUse">
<stop stop-color="white"/>
<stop offset="1" stop-opacity="0"/>
</linearGradient>
<linearGradient id="paint10_linear_1_21" x1="71.6086" y1="270" x2="457.561" y2="235.534" gradientUnits="userSpaceOnUse">
<stop stop-color="#FF3873"/>
<stop offset="0.473958" stop-color="#711EFF"/>
<stop offset="1" stop-color="#3FE5FF"/>
</linearGradient>
<linearGradient id="paint11_linear_1_21" x1="101.79" y1="43.0111" x2="371.487" y2="271.88" gradientUnits="userSpaceOnUse">
<stop stop-color="#F6F063"/>
<stop offset="1" stop-color="#E07774" stop-opacity="0"/>
</linearGradient>
<radialGradient id="paint12_radial_1_21" cx="0" cy="0" r="1" gradientUnits="userSpaceOnUse" gradientTransform="translate(88.1196 195.763) rotate(65.6073) scale(111.985 96.031)">
<stop offset="0.925861" stop-color="white"/>
<stop offset="1" stop-color="white" stop-opacity="0"/>
</radialGradient>
<radialGradient id="paint13_radial_1_21" cx="0" cy="0" r="1" gradientUnits="userSpaceOnUse" gradientTransform="translate(143.867 149.394) rotate(59.0298) scale(71.0713 97.0176)">
<stop offset="0.0864251" stop-color="white"/>
<stop offset="0.94115" stop-color="white" stop-opacity="0"/>
</radialGradient>
<linearGradient id="paint14_linear_1_21" x1="121.941" y1="158.876" x2="321.958" y2="229.412" gradientUnits="userSpaceOnUse">
<stop stop-color="white"/>
<stop offset="1" stop-opacity="0"/>
</linearGradient>
</defs>
</svg>
