<svg width="540" height="540" viewBox="0 0 540 540" fill="none" xmlns="http://www.w3.org/2000/svg">
<path d="M71.0672 409.871C91.6961 438.564 118.157 462.574 148.715 480.324C179.274 498.074 213.239 509.164 248.383 512.867C230.303 485.658 204.02 460.625 171.208 441.566C138.396 422.508 103.647 412.098 71.0672 409.871Z" fill="url(#paint0_linear_1_17)"/>
<path d="M215.298 365.68C152.082 328.955 83.6615 319.596 34.7043 336.129C39.4305 351.75 45.6637 366.873 53.3156 381.287C95.8512 380.303 142.293 391.855 185.507 416.955C228.721 442.055 261.771 476.695 281.998 514.141C298.318 513.639 314.553 511.561 330.475 507.934C320.578 457.223 278.496 402.414 215.298 365.68Z" fill="url(#paint1_linear_1_17)"/>
<path d="M516.541 216.607C508.502 183.916 493.961 153.179 473.781 126.232C453.602 99.2855 428.197 76.6814 399.088 59.7697C369.979 42.8582 337.76 31.9858 304.355 27.802C270.951 23.6181 237.047 26.2085 204.666 35.4185C258.762 42.0389 318.809 62.3465 377.695 96.557C436.584 130.767 484.01 172.864 516.541 216.607Z" fill="url(#paint2_linear_1_17)"/>
<path d="M437.832 336.502C410.143 290.518 362.709 246.482 304.277 212.538C245.844 178.592 184.11 159.203 130.494 157.92C83.324 156.803 47.9219 170.515 33.3903 195.532C33.3076 195.681 33.1917 195.821 33.1007 195.971C31.7932 200.662 30.6677 205.363 29.6416 210.08C49.9328 202.069 73.4432 197.609 99.5851 197.113C157.72 196.02 222.781 214.615 282.818 249.496C342.855 284.377 391.275 331.703 419.113 382.728C431.594 405.719 439.381 428.352 442.467 449.975C446.059 446.764 449.584 443.445 453.002 439.994C453.092 439.838 453.15 439.672 453.242 439.506C467.773 414.465 462.154 376.928 437.832 336.502Z" fill="url(#paint3_linear_1_17)"/>
<path d="M259.82 289.051C170.339 237.064 71.4566 228.922 23.9062 265.201C23.9996 276.557 24.8678 287.893 26.5047 299.131C40.4924 294.891 54.9086 292.221 69.4869 291.17C122.623 287.172 181.205 301.977 234.365 332.877C287.527 363.777 329.434 407.355 352.289 455.461C358.607 468.639 363.426 482.484 366.656 496.738C377.23 492.592 387.514 487.734 397.432 482.199C405.393 422.914 349.328 341.045 259.82 289.051Z" fill="url(#paint4_linear_1_17)"/>
<path d="M483.859 259.533C455.856 213.597 408.006 169.44 349.16 135.271C290.314 101.102 228.34 81.4064 174.55 79.8258C133.545 78.6424 101.784 88.581 85.3162 107.358C153.696 95.7724 243.889 115.244 331.311 166.03C418.731 216.816 480.35 285.535 504.133 350.67C512.285 327.078 505.193 294.564 483.859 259.533Z" fill="url(#paint5_linear_1_17)"/>
<defs>
<linearGradient id="paint0_linear_1_17" x1="351.971" y1="125.042" x2="125.632" y2="514.141" gradientUnits="userSpaceOnUse">
<stop offset="0.0001" stop-color="#A4D756"/>
<stop offset="1" stop-color="#00B6E7"/>
</linearGradient>
<linearGradient id="paint1_linear_1_17" x1="351.971" y1="125.042" x2="125.632" y2="514.141" gradientUnits="userSpaceOnUse">
<stop offset="0.0001" stop-color="#A4D756"/>
<stop offset="1" stop-color="#00B6E7"/>
</linearGradient>
<linearGradient id="paint2_linear_1_17" x1="351.971" y1="125.042" x2="125.632" y2="514.141" gradientUnits="userSpaceOnUse">
<stop offset="0.0001" stop-color="#A4D756"/>
<stop offset="1" stop-color="#00B6E7"/>
</linearGradient>
<linearGradient id="paint3_linear_1_17" x1="351.971" y1="125.042" x2="125.632" y2="514.141" gradientUnits="userSpaceOnUse">
<stop offset="0.0001" stop-color="#A4D756"/>
<stop offset="1" stop-color="#00B6E7"/>
</linearGradient>
<linearGradient id="paint4_linear_1_17" x1="351.971" y1="125.042" x2="125.632" y2="514.141" gradientUnits="userSpaceOnUse">
<stop offset="0.0001" stop-color="#A4D756"/>
<stop offset="1" stop-color="#00B6E7"/>
</linearGradient>
<linearGradient id="paint5_linear_1_17" x1="351.971" y1="125.042" x2="125.632" y2="514.141" gradientUnits="userSpaceOnUse">
<stop offset="0.0001" stop-color="#A4D756"/>
<stop offset="1" stop-color="#00B6E7"/>
</linearGradient>
</defs>
</svg>
