<svg width="540" height="540" viewBox="0 0 540 540" fill="none" xmlns="http://www.w3.org/2000/svg">
<rect width="540" height="540" fill="#FEFEFE"/>
<g clip-path="url(#clip0_1_16)">
<path d="M369.426 355.176L228.375 261.063V183.518C228.375 179.57 225.206 176.398 221.262 176.398C217.319 176.398 214.15 179.57 214.15 183.518V360.887C214.15 364.835 217.319 368.007 221.262 368.007C225.206 368.007 228.375 364.835 228.375 360.887V278.195L361.539 367.091C364.778 369.204 369.144 368.357 371.257 365.115L371.397 364.975C373.51 361.733 372.665 357.362 369.426 355.247V355.176Z" fill="#091326"/>
<path d="M368.583 189.803C371.854 187.622 372.735 183.201 370.556 179.929C368.378 176.657 363.962 175.773 360.694 177.955L280.891 231.214C277.621 233.396 276.739 237.816 278.918 241.088C281.097 244.36 285.513 245.244 288.781 243.063L368.583 189.803Z" fill="#091326"/>
<path d="M490.011 407.113C488.124 407.113 486.3 408.057 485.168 409.568C438.298 473.808 362.992 510.274 283.786 507.124C160.982 502.213 60.952 402.075 56.2336 279.075C53.7171 213.89 77.2462 152.044 122.417 104.998C167.651 57.8885 228.361 32.0036 293.411 32.0036C368.843 32.0036 440.501 68.5321 485.168 129.749C486.3 131.26 488.124 132.205 490.011 132.205C492.278 132.205 494.352 130.945 495.36 128.93C496.366 126.914 496.176 124.458 494.856 122.632C446.289 56.1249 368.339 17.7701 286.365 20.1004C222.07 21.8638 161.611 48.3154 116.126 94.4799C70.5776 140.707 44.9723 201.609 44.0287 265.912C43.0221 333.238 68.5644 396.722 115.811 444.774C163.121 492.828 226.159 519.281 293.348 519.281C372.554 519.281 447.862 480.925 494.793 416.686C496.176 414.86 496.366 412.403 495.297 410.387C494.289 408.373 492.214 407.113 489.95 407.113H490.011Z" fill="url(#paint0_radial_1_16)"/>
</g>
<defs>
<radialGradient id="paint0_radial_1_16" cx="0" cy="0" r="1" gradientUnits="userSpaceOnUse" gradientTransform="translate(531.597 145.936) rotate(108.819) scale(282.783 684.152)">
<stop offset="0.139194" stop-color="#091326" stop-opacity="0"/>
<stop offset="0.620501" stop-color="#091326" stop-opacity="0.536145"/>
<stop offset="1" stop-color="#091326"/>
</radialGradient>
<clipPath id="clip0_1_16">
<rect width="452" height="500" fill="white" transform="translate(44 20)"/>
</clipPath>
</defs>
</svg>
