<svg width="540" height="540" viewBox="0 0 540 540" fill="none" xmlns="http://www.w3.org/2000/svg">
<rect x="20" y="20" width="499.28" height="499.28" rx="249.64" fill="#FEFEFE"/>
<g clip-path="url(#clip0_1_16)">
<path d="M345.426 355.176L204.375 261.063V183.518C204.375 179.57 201.206 176.398 197.262 176.398C193.319 176.398 190.15 179.57 190.15 183.518V360.887C190.15 364.835 193.319 368.007 197.262 368.007C201.206 368.007 204.375 364.835 204.375 360.887V278.195L337.539 367.091C340.778 369.204 345.144 368.357 347.257 365.115L347.397 364.975C349.51 361.733 348.665 357.362 345.426 355.247V355.176Z" fill="#091326"/>
<path d="M344.583 189.803C347.854 187.622 348.735 183.201 346.556 179.929C344.378 176.657 339.962 175.773 336.694 177.955L256.891 231.214C253.621 233.396 252.739 237.816 254.918 241.088C257.097 244.36 261.513 245.244 264.781 243.063L344.583 189.803Z" fill="#091326"/>
<path d="M466.011 407.113C464.124 407.113 462.3 408.057 461.168 409.568C414.298 473.808 338.992 510.274 259.786 507.124C136.982 502.213 36.952 402.075 32.2336 279.075C29.7171 213.89 53.2462 152.044 98.417 104.998C143.651 57.8885 204.361 32.0036 269.411 32.0036C344.843 32.0036 416.501 68.5321 461.168 129.749C462.3 131.26 464.124 132.205 466.011 132.205C468.278 132.205 470.352 130.945 471.36 128.93C472.366 126.914 472.176 124.458 470.856 122.632C422.289 56.1249 344.339 17.7701 262.365 20.1004C198.07 21.8638 137.611 48.3154 92.1259 94.4799C46.5776 140.707 20.9723 201.609 20.0287 265.912C19.0221 333.238 44.5644 396.722 91.8113 444.774C139.121 492.828 202.159 519.281 269.348 519.281C348.554 519.281 423.862 480.925 470.793 416.686C472.176 414.86 472.366 412.403 471.297 410.387C470.289 408.373 468.214 407.113 465.95 407.113H466.011Z" fill="url(#paint0_radial_1_16)"/>
</g>
<defs>
<radialGradient id="paint0_radial_1_16" cx="0" cy="0" r="1" gradientUnits="userSpaceOnUse" gradientTransform="translate(507.597 145.936) rotate(108.819) scale(282.783 684.152)">
<stop offset="0.139194" stop-color="#091326" stop-opacity="0"/>
<stop offset="0.620501" stop-color="#091326" stop-opacity="0.536145"/>
<stop offset="1" stop-color="#091326"/>
</radialGradient>
<clipPath id="clip0_1_16">
<rect width="452" height="500" fill="white" transform="translate(20 20)"/>
</clipPath>
</defs>
</svg>
