<svg width="540" height="540" viewBox="0 0 540 540" fill="none" xmlns="http://www.w3.org/2000/svg">
<g clip-path="url(#clip0_1_19)">
<path d="M253.398 181.25L182.598 248.553L110.332 239.287L53.2031 265.623L31.2305 315.857L39.043 362.189L80.0586 375.357L128.887 369.504L159.16 439.246L268.535 402.18L366.68 383.648L472.637 375.357L458.477 311.467L472.637 292.447L509.746 229.533V171.496L481.426 128.578L426.738 103.217H386.211L319.805 128.578L253.398 181.25Z" fill="#C8ECE1"/>
<path fill-rule="evenodd" clip-rule="evenodd" d="M466.095 312.518L466.101 312.481C474.106 308.095 482.401 298.009 488.065 291.121C489.598 289.259 490.938 287.63 492.026 286.411C502.442 272.96 509.989 257.519 514.2 241.044C539.98 149.862 476.796 81.632 384.404 93.3013C317.504 105.116 270.057 150.111 222.575 195.137C207.453 209.476 192.329 223.819 176.571 237.094C170.146 234.166 161.297 232.937 154.076 231.935C150.718 231.469 147.712 231.051 145.467 230.535C110.477 227.647 70.659 236.607 46.0708 263.042C6.96807 306.921 7.83369 374.704 76.3825 384.32C92.4692 387.192 108.953 386.624 124.754 382.686C125.203 384.795 126.069 386.817 126.936 388.836C127.474 390.093 128.012 391.349 128.449 392.625C131.18 399.195 133.229 406.079 135.276 412.964C138.26 422.991 141.243 433.017 146.332 442.071C148.017 444.269 150.264 445.311 152.577 445.471C154.018 447.059 156.032 448.132 158.549 448.233C210.415 425.62 264.884 409.503 320.712 400.246C352 394.326 383.336 391.418 414.867 388.49C432.805 386.825 450.806 385.155 468.896 382.921C478.106 383.123 481.522 375.034 479.29 369.148C480.206 367.457 480.592 365.385 480.163 363.005C478.579 356.397 476.622 349.876 474.669 343.368C474.344 342.282 474.018 341.198 473.694 340.113C473.194 338.39 472.687 336.668 472.182 334.943C470 327.522 467.812 320.079 466.095 312.518ZM142.755 376.752C153.78 372.949 166.59 367.603 162.484 356.813C161.374 354.502 159.401 352.718 156.988 351.844C154.575 350.971 151.915 351.077 149.579 352.14C118.882 368.483 75.6361 374.734 47.5013 350.413C28.5759 326.777 45.2365 290.995 64.1918 272.3C89.6462 250.611 125.299 246.127 157.63 252.211C152.458 256.09 147.199 259.821 141.831 263.37C131.221 270.455 141.623 286.113 152.263 279.624C181.984 260.953 207.238 236.666 232.51 212.362C248.418 197.062 264.332 181.757 281.372 167.842C319.938 135.216 370.038 104.971 422.464 112.71C448.602 118.069 476.707 129.887 489.075 155.071C509.879 193.205 501.057 243.99 474.799 277.391C469.514 284.234 463.382 290.382 456.552 295.688C453.973 294.92 451.005 294.659 448.201 294.413H448.2L448.199 294.412C447.129 294.319 446.083 294.227 445.092 294.109C453.639 279.807 458.04 257.269 457.575 247.682C458.589 235.298 439.99 233.482 438.679 245.807C438.363 253.326 437.296 260.796 435.49 268.103C433.403 275.575 429.812 282.543 424.939 288.584C423.31 289.202 421.877 290.246 420.792 291.609C420.455 292.032 420.155 292.482 419.896 292.951C412.605 292.824 405.312 292.86 398.026 293.059C403.592 280.456 406.67 265.563 405.296 259.292C404.505 251.519 402.916 243.848 400.557 236.4C396.652 224.551 378.86 230.238 382.377 242.145C388.601 259.206 386.827 279.894 374.951 294.238C360.791 295.298 346.673 296.976 332.637 299.271C315.222 302.862 298.072 307.647 281.314 313.589C278.934 314.382 276.952 316.064 275.786 318.284C274.619 320.504 274.356 323.088 275.055 325.497C275.831 327.89 277.51 329.888 279.735 331.066C281.961 332.244 284.559 332.511 286.977 331.807C290.666 330.694 294.34 329.543 298.012 328.393L298.014 328.392H298.015C307.099 325.545 316.17 322.704 325.424 320.436C342.88 316.334 359.812 314.551 377.49 313.487C378.7 313.662 379.897 313.583 381.075 313.281C385.321 313.049 389.614 312.851 393.973 312.666C411.617 311.217 429.241 312.201 446.787 313.353C446.965 317.864 448.568 322.974 450.023 327.611C450.88 330.337 451.684 332.901 452.117 335.082C453.625 340.084 454.998 345.13 456.37 350.173C457.649 354.878 458.929 359.58 460.316 364.242C444.566 366.078 428.763 367.627 412.953 369.176C372.799 373.111 332.603 377.051 293.144 385.719C264.159 391.577 235.57 399.242 207.546 408.671L207.468 408.695C191.503 413.797 175.373 418.952 160.713 427.105C158.461 420.994 156.466 414.767 154.471 408.54L154.47 408.539V408.538V408.537H154.469C151.011 397.743 147.551 386.949 142.755 376.752ZM191.639 369.849C183.085 373.177 170.53 378.059 176.521 388.755C182.175 396.121 189.77 392.125 197.152 388.239C200.63 386.409 204.062 384.603 207.221 384.022C215.897 380.578 224.752 377.597 233.746 375.091C239.473 373.586 245.231 372.174 250.976 370.765L250.977 370.764L250.982 370.763L250.989 370.761C253.191 370.222 255.393 369.682 257.589 369.137C269.421 365.446 263.817 347.406 251.896 351.039C232.135 355.322 212.781 361.297 194.048 368.899C193.3 369.204 192.489 369.518 191.641 369.848L191.639 369.849Z" fill="#308D8A"/>
</g>
<defs>
<clipPath id="clip0_1_19">
<rect width="500" height="357" fill="white" transform="translate(20 92)"/>
</clipPath>
</defs>
</svg>
