<svg width="540" height="540" viewBox="0 0 540 540" fill="none" xmlns="http://www.w3.org/2000/svg">
<g clip-path="url(#clip0_1_25)">
<mask id="mask0_1_25" style="mask-type:luminance" maskUnits="userSpaceOnUse" x="20" y="20" width="500" height="500">
<path d="M520 20H20V520H520V20Z" fill="white"/>
</mask>
<g mask="url(#mask0_1_25)">
<mask id="mask1_1_25" style="mask-type:alpha" maskUnits="userSpaceOnUse" x="-91" y="21" width="613" height="615">
<path fill-rule="evenodd" clip-rule="evenodd" d="M431.115 365.976C485.287 333.578 521.561 274.336 521.561 206.622C521.561 104.15 438.492 21.0801 336.021 21.0801C263.695 21.0801 201.034 62.4631 170.426 122.843L-90.6558 383.924L161.255 635.836L431.115 365.976Z" fill="#795E5E"/>
</mask>
<g mask="url(#mask1_1_25)">
<path fill-rule="evenodd" clip-rule="evenodd" d="M332.916 7.65421L333.014 7.55487C303.766 8.10303 275.513 15.983 251.217 31.3937C232.996 50.7672 215.166 70.5311 197.909 90.8365C179.123 112.894 161.001 135.551 143.762 158.961C137.348 167.754 131.03 176.675 125.064 185.949C134.339 179.984 143.259 173.665 152.052 167.252C162.426 159.592 172.667 151.767 182.76 143.793C232.09 104.872 278.311 62.257 322.709 18.0456C326.118 14.5993 329.509 11.1347 332.916 7.65421ZM311.045 123.439C343.953 90.159 376.557 56.4768 408.239 21.9698C395.011 16.5727 381.433 12.6778 367.837 10.3249C338.516 37.6389 309.754 65.5455 281.304 93.6979C248.57 126.73 216.158 160.182 184.669 194.459C139.007 244.099 95.1943 295.459 54.9128 349.83C104.031 313.426 150.72 274.172 195.858 233.235C235.198 197.613 273.397 160.752 311.045 123.439ZM464.721 56.3476C418.275 107.773 370.112 157.609 321.368 206.8C292.127 235.818 262.662 264.614 232.768 292.947C167.47 354.86 100.141 414.643 28.6816 469.746C85.0434 396.654 146.307 327.881 209.739 261.177C236.719 232.822 264.071 204.838 291.627 177.059C339.599 129.533 388.196 82.5348 438.254 37.1608C447.406 42.7694 456.262 49.1557 464.721 56.3476ZM508.426 106.698C502.754 97.6127 496.287 88.8381 489.049 80.4627C437.59 126.939 387.705 175.151 338.482 223.927C309.448 253.185 280.62 282.682 252.254 312.609C190.357 377.89 130.624 445.205 75.5365 516.615C148.495 460.348 217.174 399.216 283.763 335.898C312.232 308.804 340.33 281.338 368.223 253.668C415.863 205.583 462.959 156.889 508.426 106.698ZM523.824 136.525C529.332 149.569 533.352 162.982 535.869 176.415C508.266 206.099 480 235.183 451.525 263.993C418.169 297.052 384.373 329.77 349.736 361.582C300.421 406.919 249.384 450.373 195.394 490.385C231.621 441.48 270.7 395.003 311.457 350.045C347.221 310.489 384.276 272.095 421.785 234.252C455.242 201.165 489.102 168.382 523.824 136.525ZM518.939 289.159C532.332 265.507 539 238.578 539.09 210.79C535.086 214.682 531.102 218.593 527.152 222.506C482.434 267.407 439.373 314.153 400.093 364.101C392.57 373.669 385.193 383.351 377.945 393.163C371.516 401.972 365.214 410.876 359.248 420.15C368.522 414.185 377.443 407.867 386.236 401.453C407.745 385.595 428.65 369.002 449.029 351.82C472.988 331.653 496.234 310.675 518.939 289.159Z" fill="url(#paint0_linear_1_25)"/>
</g>
</g>
</g>
<defs>
<linearGradient id="paint0_linear_1_25" x1="439.828" y1="1142.67" x2="1052.97" y2="412.097" gradientUnits="userSpaceOnUse">
<stop stop-color="#FF2189"/>
<stop offset="1" stop-color="#FF9D00"/>
</linearGradient>
<clipPath id="clip0_1_25">
<rect width="500" height="500" fill="white" transform="translate(20 20)"/>
</clipPath>
</defs>
</svg>
