<svg width="540" height="540" viewBox="0 0 540 540" fill="none" xmlns="http://www.w3.org/2000/svg">
<path d="M270.268 467.247C43.1128 462.564 21.6078 378.932 21.6078 269.992C21.6078 161.049 46.4731 75.0767 270.268 72.7355C494.061 70.3944 518.926 161.049 518.926 269.992C518.926 378.932 497.421 471.93 270.268 467.247Z" fill="#6DC4FE"/>
<path fill-rule="evenodd" clip-rule="evenodd" d="M200.914 398.752C200.865 398.752 200.815 398.754 200.764 398.754C141.143 398.754 92.8098 350.375 92.8098 290.696C92.8098 238.96 129.133 195.717 177.645 185.121C202.126 150.907 242.175 128.611 287.428 128.611C357.18 128.611 414.571 181.582 421.64 249.528C440.226 264.999 452.059 288.32 452.059 314.409C452.059 360.992 414.332 398.754 367.795 398.754C367.64 398.754 367.483 398.754 367.328 398.752H287.998C287.808 398.754 287.618 398.754 287.428 398.754C287.237 398.754 287.047 398.754 286.857 398.752H200.914ZM259.088 238.023C271.884 238.023 282.256 227.641 282.256 214.833C282.256 202.026 271.884 191.644 259.088 191.644C246.293 191.644 235.919 202.026 235.919 214.833C235.919 227.641 246.293 238.023 259.088 238.023ZM351.754 238.023C364.549 238.023 374.923 227.641 374.923 214.833C374.923 202.026 364.549 191.644 351.754 191.644C338.958 191.644 328.586 202.026 328.586 214.833C328.586 227.641 338.958 238.023 351.754 238.023ZM347.611 259.023C356.407 257.785 363.832 256.738 368.301 256.738C379.268 256.738 388.158 265.639 388.158 276.616C388.158 322.353 351.115 359.432 305.421 359.432C259.726 359.432 222.682 322.353 222.682 276.616C222.682 265.639 231.574 256.738 242.54 256.738C247.01 256.738 254.434 257.785 263.231 259.023C276.015 260.825 291.697 263.034 305.421 263.034C319.143 263.034 334.827 260.825 347.611 259.023ZM305.418 342.869C323.551 342.869 339.982 335.569 351.934 323.746H351.928C357.248 318.484 355.505 309.485 348.642 306.52C337.046 301.51 321.938 298.478 305.414 298.478C288.891 298.478 273.783 301.51 262.187 306.52C255.323 309.485 253.581 318.487 258.901 323.746C270.857 335.569 287.285 342.869 305.418 342.869Z" fill="#F7F9FB"/>
</svg>
