<svg width="540" height="540" viewBox="0 0 540 540" fill="none" xmlns="http://www.w3.org/2000/svg">
<g clip-path="url(#clip0_1_15)">
<mask id="mask0_1_15" style="mask-type:luminance" maskUnits="userSpaceOnUse" x="20" y="45" width="500" height="449">
<path d="M519.888 45H20V493.005H519.888V45Z" fill="white"/>
</mask>
<g mask="url(#mask0_1_15)">
<path d="M517.313 398.219L434.792 486.902C432.998 488.829 430.827 490.365 428.417 491.415C426.005 492.464 423.403 493.006 420.773 493.005H29.5802C27.7136 493.005 25.8877 492.458 24.3268 491.432C22.7659 490.406 21.538 488.946 20.794 487.231C20.05 485.515 19.8222 483.62 20.1388 481.776C20.4553 479.932 21.3023 478.223 22.5758 476.855L105.16 388.172C106.949 386.25 109.112 384.717 111.516 383.667C113.921 382.618 116.514 382.074 119.137 382.07H510.308C512.174 382.07 514 382.616 515.561 383.642C517.123 384.668 518.35 386.128 519.094 387.844C519.839 389.559 520.065 391.455 519.749 393.298C519.433 395.142 518.586 396.851 517.313 398.219ZM434.792 219.637C432.998 217.71 430.827 216.174 428.417 215.125C426.005 214.075 423.403 213.533 420.773 213.535H29.5802C27.7136 213.535 25.8877 214.081 24.3268 215.107C22.7659 216.133 21.538 217.593 20.794 219.308C20.05 221.024 19.8222 222.919 20.1388 224.763C20.4553 226.607 21.3023 228.317 22.5758 229.684L105.16 318.368C106.949 320.29 109.112 321.822 111.516 322.872C113.921 323.922 116.514 324.465 119.137 324.47H510.308C512.174 324.47 514 323.923 515.561 322.897C517.123 321.872 518.35 320.411 519.094 318.695C519.839 316.981 520.065 315.084 519.749 313.242C519.433 311.398 518.586 309.688 517.313 308.32L434.792 219.637ZM29.5802 155.934H420.773C423.403 155.936 426.005 155.395 428.417 154.345C430.827 153.295 432.998 151.76 434.792 149.833L517.313 61.1495C518.586 59.782 519.433 58.0714 519.749 56.2281C520.065 54.3848 519.839 52.489 519.094 50.7736C518.35 49.0582 517.123 47.5979 515.561 46.5722C514 45.5465 512.174 45.0001 510.308 45H119.137C116.514 45.0045 113.921 45.5483 111.516 46.5978C109.112 47.6473 106.949 49.1801 105.16 51.1014L22.5971 139.785C21.3249 141.151 20.4782 142.86 20.1609 144.701C19.8437 146.542 20.0696 148.436 20.811 150.151C21.5524 151.866 22.777 153.326 24.3347 154.353C25.8924 155.381 27.7154 155.93 29.5802 155.934Z" fill="url(#paint0_linear_1_15)"/>
</g>
</g>
<defs>
<linearGradient id="paint0_linear_1_15" x1="62.1965" y1="503.682" x2="473.372" y2="41.1197" gradientUnits="userSpaceOnUse">
<stop offset="0.08" stop-color="#9945FF"/>
<stop offset="0.3" stop-color="#8752F3"/>
<stop offset="0.5" stop-color="#5497D5"/>
<stop offset="0.6" stop-color="#43B4CA"/>
<stop offset="0.72" stop-color="#28E0B9"/>
<stop offset="0.97" stop-color="#19FB9B"/>
</linearGradient>
<clipPath id="clip0_1_15">
<rect width="500" height="449" fill="white" transform="translate(20 45)"/>
</clipPath>
</defs>
</svg>
